<?xml version="1.0" standalone="no"?>
<!DOCTYPE svg PUBLIC "-//W3C//DTD SVG 20010904//EN"
 "http://www.w3.org/TR/2001/REC-SVG-20010904/DTD/svg10.dtd">
<svg version="1.0" xmlns="http://www.w3.org/2000/svg"
 width="100.000000pt" height="100.000000pt" viewBox="0 0 100.000000 100.000000"
 preserveAspectRatio="xMidYMid meet">
<metadata>
Created by potrace 1.15, written by Peter Selinger 2001-2017
</metadata>
<g transform="translate(0.000000,100.000000) scale(0.100000,-0.100000)"
fill="#000000" stroke="none">
<path d="M210 500 c0 -331 1 -350 18 -341 9 5 114 77 232 159 l215 150 3 -159
2 -159 35 0 35 0 0 350 0 350 -35 0 -35 0 -2 -159 -3 -159 -215 150 c-118 82
-223 154 -232 159 -17 9 -18 -10 -18 -341z m231 104 c76 -53 139 -100 139
-104 0 -8 -273 -200 -284 -200 -3 0 -6 90 -6 200 0 110 3 200 6 200 3 0 68
-43 145 -96z"/>
</g>
</svg>
