<?xml version="1.0" encoding="UTF-8"?>
<svg width="78px" height="70px" viewBox="0 0 78 70" version="1.1" xmlns="http://www.w3.org/2000/svg" xmlns:xlink="http://www.w3.org/1999/xlink">
    <title>angry</title>
    <g id="Page-1" stroke="none" stroke-width="1" fill="none" fill-rule="evenodd">
        <g id="Artboard" transform="translate(-26, -513)" fill="#000000" fill-rule="nonzero">
            <path d="M47.216509,514.828607 L47.998645,515.052997 C48.5205107,515.204455 49.0430077,515.359337 49.5646231,515.515798 C50.1326231,515.685798 50.7516231,515.868798 51.1886231,515.992798 C56.8208128,513.584057 64.1209641,513.491339 64.6804462,513.488858 L64.7410499,513.488857 C65.3051112,513.491305 72.6004335,513.583074 78.2326231,515.992798 C78.6686231,515.868798 79.2886231,515.684798 79.8556231,515.515798 C80.3772385,515.359337 80.8997355,515.204455 81.4216013,515.053 L82.2037373,514.828616 C88.1935832,513.131584 93.9998924,512.009721 97.3216231,514.270798 C101.455623,517.080798 101.462623,525.027798 100.855623,533.190798 L100.829985,533.534225 C100.800919,533.934416 100.77629,534.314576 100.771623,534.481798 C100.802623,534.833798 101.032623,536.026798 101.234623,537.089798 C102.446623,543.492798 104.977623,556.825798 102.088623,564.230798 C95.8140031,580.315328 76.3452769,582.853896 65.0503691,582.903059 L64.3708768,582.903059 C53.0759494,582.853896 33.6062431,580.315338 27.3316231,564.231798 C24.4436231,556.826798 26.9736231,543.492798 28.1856231,537.090798 C28.3876231,536.027798 28.6166231,534.835798 28.6486231,534.482798 C28.6426231,534.266798 28.6036231,533.699798 28.5646231,533.191798 C27.9586231,525.022798 27.9646231,517.081798 32.0986231,514.264798 C35.4203539,512.009029 41.2266631,513.131504 47.216509,514.828607 Z M35.0336231,518.581798 C34.3686231,519.038798 32.9146231,521.326798 33.7686231,532.801798 C33.8276231,533.615798 33.8666231,534.157798 33.8666231,534.522798 C33.8666231,535.116798 33.7296231,535.891798 33.3126231,538.062798 C32.2756231,543.525798 29.8506231,556.323798 32.1976231,562.335798 C34.5966231,568.503798 39.5976231,572.244798 45.2566231,574.487798 C45.3926231,574.520798 45.7456231,574.350798 45.8496231,574.077798 C45.9406231,573.847798 45.9866231,573.502798 45.8106231,573.314798 C33.6376231,566.232798 35.7766231,552.039798 35.9456231,551.002798 C35.9456231,550.983798 35.9526231,550.970798 35.9526231,550.957798 C35.9586231,550.943798 35.9586231,550.937798 35.9586231,550.937798 C36.6756231,545.610798 41.2656231,541.332798 43.5416231,539.507798 C43.5606231,539.494798 43.5736231,539.481798 43.5866231,539.468798 C43.6516231,539.416798 43.7166231,539.370798 43.7756231,539.318798 C44.0166231,539.129798 44.2316231,538.973798 44.3946231,538.849798 C44.5186231,538.759798 44.6226231,538.686798 44.6946231,538.634798 C44.7136231,538.628798 44.7266231,538.614798 44.7396231,538.608798 C44.8176231,538.555798 44.8956231,538.510798 44.9746231,538.458798 C46.3696231,537.630798 47.9876231,537.154798 49.7016231,537.154798 C55.0276231,537.154798 59.3576231,541.730798 59.3576231,547.363798 C59.3576231,549.886798 58.9396231,551.739798 56.5076231,553.413798 C56.4356231,553.472798 55.2956231,554.378798 55.2166231,554.424798 C55.1326231,554.470798 55.0476231,554.516798 54.9566231,554.554798 C54.9176231,554.568798 54.5656231,554.732798 54.1026231,555.050798 L54.0966231,555.058798 C53.0656231,555.768798 51.4816231,557.228798 51.4816231,559.523798 C51.4816231,560.507798 51.6516231,561.329798 51.9186231,562.014798 C52.9746231,563.871798 54.2786231,564.967798 55.8956231,565.371798 C58.6606231,566.068798 61.6926231,564.640798 62.8336231,564.021798 C61.4306231,563.096798 60.3686231,561.388798 60.0556231,560.624798 C59.1496231,558.447798 60.2706231,557.085798 60.6356231,556.720798 C61.7756231,555.578798 63.4456231,555.337798 64.6386231,555.337798 C65.4666231,555.337798 67.5386231,555.474798 68.7846231,556.720798 C69.2536231,557.183798 70.2256231,558.487798 69.3516231,560.599798 C69.1096231,561.186798 68.0356231,563.083798 66.5286231,564.061798 C66.5416231,564.068798 66.5606231,564.087798 66.5746231,564.101798 C67.1996231,564.582798 69.7896231,566.441798 72.5006231,566.010798 C74.3466231,565.716798 76.0426231,564.355798 77.5216231,561.968798 C77.7826231,561.291798 77.9456231,560.488798 77.9456231,559.523798 C77.9456231,557.223798 76.3156231,555.742798 75.2926231,555.038798 C74.8236231,554.719798 74.4786231,554.563798 74.4716231,554.555798 C74.3786231,554.517798 74.2956231,554.471798 74.2096231,554.425798 C74.1326231,554.374798 74.0526231,554.322798 73.9766231,554.270798 C71.5446231,552.594798 70.0706231,549.887798 70.0706231,547.365798 C70.0706231,541.733798 74.3996231,537.156798 79.7266231,537.156798 C81.4226231,537.156798 83.0056231,537.619798 84.4016231,538.434798 C84.4076231,538.434798 84.4146231,538.440798 84.4206231,538.440798 C84.4326231,538.452798 84.4466231,538.452798 84.4536231,538.459798 C84.5246231,538.511798 84.6096231,538.556798 84.6876231,538.609798 C84.6946231,538.615798 84.7136231,538.629798 84.7336231,538.635798 C84.9356231,538.785798 85.3596231,539.091798 85.9266231,539.548798 C88.2336231,541.399798 92.7586231,545.649798 93.4626231,550.938798 C93.4626231,550.938798 93.4626231,550.944798 93.4696231,550.958798 C93.4696231,550.991798 93.4886231,551.068798 93.5016231,551.199798 C93.8026231,553.246798 95.3146231,566.865798 83.1816231,573.549798 C83.1356231,573.731798 83.1556231,573.914798 83.2136231,574.077798 C83.3766231,574.494798 83.7686231,574.592798 84.3736231,574.363798 C84.4726231,574.324798 84.5706231,574.298798 84.6746231,574.279798 C90.1246231,572.016798 94.8976231,568.319798 97.2256231,562.341798 C99.5716231,556.322798 97.1466231,543.524798 96.1106231,538.062798 C95.7006231,535.891798 95.5566231,535.116798 95.5566231,534.522798 C95.5566231,534.157798 95.5956231,533.615798 95.6546231,532.801798 C96.5146231,521.326798 95.0546231,519.038798 94.3896231,518.581798 C93.0526231,517.675798 88.6656231,518.320798 81.3566231,520.511798 C79.0286231,521.209798 78.3246231,521.424798 77.4766231,521.280798 L77.1056231,521.221798 L76.7666231,521.052798 C72.1506231,518.816798 65.1096231,518.711798 64.7186231,518.705798 L64.7046231,518.705798 C64.3136231,518.711798 57.2796231,518.816798 52.6566231,521.052798 L52.3176231,521.221798 L51.9456231,521.280798 C51.0986231,521.417798 50.3936231,521.209798 48.0666231,520.511798 C40.7586231,518.320798 36.3706231,517.668798 35.0336231,518.581798 Z M45.4167947,544.144673 C44.6248509,545.275686 44.8997208,546.83455 46.0307337,547.626494 L50.126494,550.494376 C51.2575069,551.28632 52.8163714,551.01145 53.6083152,549.880437 C54.400259,548.749424 54.1253891,547.19056 52.9943761,546.398616 L48.8986159,543.530734 C47.767603,542.73879 46.2087385,543.01366 45.4167947,544.144673 Z M81.113939,543.518179 L77.0181788,546.386061 C75.8871658,547.178005 75.612296,548.736869 76.4042398,549.867882 C77.1961836,550.998895 78.755048,551.273765 79.886061,550.481821 L83.9818212,547.613939 C85.1128342,546.821995 85.387704,545.263131 84.5957602,544.132118 C83.8038164,543.001105 82.244952,542.726235 81.113939,543.518179 Z M47.5306231,523.813798 C48.8776231,524.321798 49.5586231,525.826798 49.0496231,527.173798 C48.5416231,528.521798 42.1008056,533.128643 41.3456231,533.717798 C40.5904406,534.306953 40.1666231,534.486798 39.4966231,534.486798 C38.8316231,534.486798 38.1666231,534.233798 37.6576231,533.727798 C36.5946231,532.670798 36.4926231,529.179798 36.5936231,526.436798 C36.6566231,524.748798 36.9016231,523.449798 37.8956231,522.597798 C38.7686231,521.848798 39.8546231,520.916798 47.5306231,523.813798 Z M81.9686231,523.813798 C89.6436231,520.916798 90.7316231,521.848798 91.6036231,522.597798 C92.5976231,523.449798 92.8436231,524.748798 92.9066231,526.436798 C93.0076231,529.179798 92.9056231,532.670798 91.8426231,533.727798 C91.3336231,534.233798 90.6686231,534.486798 90.0036231,534.486798 C89.3336231,534.486798 88.8819498,534.244586 88.1516231,533.717798 C87.9300352,533.557966 86.777378,532.694728 84.6936516,531.128084 C82.0485306,528.981564 80.6335211,527.663469 80.4486231,527.173798 C79.9406231,525.826798 80.6206231,524.321798 81.9686231,523.813798 Z" id="angry"></path>
        </g>
    </g>
</svg>