<?xml version="1.0" encoding="UTF-8"?>
<svg width="78px" height="70px" viewBox="0 0 78 70" version="1.1" xmlns="http://www.w3.org/2000/svg" xmlns:xlink="http://www.w3.org/1999/xlink">
    <title>ded</title>
    <g id="Page-1" stroke="none" stroke-width="1" fill="none" fill-rule="evenodd">
        <g id="Artboard" transform="translate(-216, -513)" fill="#000000" fill-rule="nonzero">
            <path d="M237.216509,514.828607 L237.998645,515.052997 C238.520511,515.204455 239.043008,515.359337 239.564623,515.515798 C240.132623,515.685798 240.751623,515.868798 241.188623,515.992798 C246.820813,513.584057 254.120964,513.491339 254.680446,513.488858 L254.74105,513.488857 C255.305111,513.491305 262.600433,513.583074 268.232623,515.992798 C268.668623,515.868798 269.288623,515.684798 269.855623,515.515798 C270.377239,515.359337 270.899736,515.204455 271.421601,515.053 L272.203737,514.828616 C278.193583,513.131584 283.999892,512.009721 287.321623,514.270798 C291.455623,517.080798 291.462623,525.027798 290.855623,533.190798 L290.829985,533.534225 C290.800919,533.934416 290.77629,534.314576 290.771623,534.481798 C290.802623,534.833798 291.032623,536.026798 291.234623,537.089798 C292.446623,543.492798 294.977623,556.825798 292.088623,564.230798 C285.814003,580.315328 266.345277,582.853896 255.050369,582.903059 L254.370877,582.903059 C243.075949,582.853896 223.606243,580.315338 217.331623,564.231798 C214.443623,556.826798 216.973623,543.492798 218.185623,537.090798 C218.387623,536.027798 218.616623,534.835798 218.648623,534.482798 C218.642623,534.266798 218.603623,533.699798 218.564623,533.191798 C217.958623,525.022798 217.964623,517.081798 222.098623,514.264798 C225.420354,512.009029 231.226663,513.131504 237.216509,514.828607 Z M225.033623,518.581798 C224.368623,519.038798 222.914623,521.326798 223.768623,532.801798 C223.827623,533.615798 223.866623,534.157798 223.866623,534.522798 C223.866623,535.116798 223.729623,535.891798 223.312623,538.062798 C222.275623,543.525798 219.850623,556.323798 222.197623,562.335798 C224.596623,568.503798 229.597623,572.244798 235.256623,574.487798 C235.392623,574.520798 235.745623,574.350798 235.849623,574.077798 C235.940623,573.847798 235.986623,573.502798 235.810623,573.314798 C223.637623,566.232798 225.776623,552.039798 225.945623,551.002798 C225.945623,550.983798 225.952623,550.970798 225.952623,550.957798 C225.958623,550.943798 225.958623,550.937798 225.958623,550.937798 C226.675623,545.610798 231.265623,541.332798 233.541623,539.507798 C233.560623,539.494798 233.573623,539.481798 233.586623,539.468798 C233.651623,539.416798 233.716623,539.370798 233.775623,539.318798 C234.016623,539.129798 234.231623,538.973798 234.394623,538.849798 C234.518623,538.759798 234.622623,538.686798 234.694623,538.634798 C234.713623,538.628798 234.726623,538.614798 234.739623,538.608798 C234.817623,538.555798 234.895623,538.510798 234.974623,538.458798 C236.369623,537.630798 237.987623,537.154798 239.701623,537.154798 C245.027623,537.154798 249.357623,541.730798 249.357623,547.363798 C249.357623,549.886798 248.939623,551.739798 246.507623,553.413798 C246.435623,553.472798 245.295623,554.378798 245.216623,554.424798 C245.132623,554.470798 245.047623,554.516798 244.956623,554.554798 C244.917623,554.568798 244.565623,554.732798 244.102623,555.050798 L244.096623,555.058798 C243.065623,555.768798 241.481623,557.228798 241.481623,559.523798 C241.481623,560.507798 241.651623,561.329798 241.918623,562.014798 C242.974623,563.871798 244.278623,564.967798 245.895623,565.371798 C248.660623,566.068798 251.692623,564.640798 252.833623,564.021798 C251.430623,563.096798 250.368623,561.388798 250.055623,560.624798 C249.149623,558.447798 250.270623,557.085798 250.635623,556.720798 C251.775623,555.578798 253.445623,555.337798 254.638623,555.337798 C255.466623,555.337798 257.538623,555.474798 258.784623,556.720798 C259.253623,557.183798 260.225623,558.487798 259.351623,560.599798 C259.109623,561.186798 258.035623,563.083798 256.528623,564.061798 C256.541623,564.068798 256.560623,564.087798 256.574623,564.101798 C257.199623,564.582798 259.789623,566.441798 262.500623,566.010798 C264.346623,565.716798 266.042623,564.355798 267.521623,561.968798 C267.782623,561.291798 267.945623,560.488798 267.945623,559.523798 C267.945623,557.223798 266.315623,555.742798 265.292623,555.038798 C264.823623,554.719798 264.478623,554.563798 264.471623,554.555798 C264.378623,554.517798 264.295623,554.471798 264.209623,554.425798 C264.132623,554.374798 264.052623,554.322798 263.976623,554.270798 C261.544623,552.594798 260.070623,549.887798 260.070623,547.365798 C260.070623,541.733798 264.399623,537.156798 269.726623,537.156798 C271.422623,537.156798 273.005623,537.619798 274.401623,538.434798 C274.407623,538.434798 274.414623,538.440798 274.420623,538.440798 C274.432623,538.452798 274.446623,538.452798 274.453623,538.459798 C274.524623,538.511798 274.609623,538.556798 274.687623,538.609798 C274.694623,538.615798 274.713623,538.629798 274.733623,538.635798 C274.935623,538.785798 275.359623,539.091798 275.926623,539.548798 C278.233623,541.399798 282.758623,545.649798 283.462623,550.938798 C283.462623,550.938798 283.462623,550.944798 283.469623,550.958798 C283.469623,550.991798 283.488623,551.068798 283.501623,551.199798 C283.802623,553.246798 285.314623,566.865798 273.181623,573.549798 C273.135623,573.731798 273.155623,573.914798 273.213623,574.077798 C273.376623,574.494798 273.768623,574.592798 274.373623,574.363798 C274.472623,574.324798 274.570623,574.298798 274.674623,574.279798 C280.124623,572.016798 284.897623,568.319798 287.225623,562.341798 C289.571623,556.322798 287.146623,543.524798 286.110623,538.062798 C285.700623,535.891798 285.556623,535.116798 285.556623,534.522798 C285.556623,534.157798 285.595623,533.615798 285.654623,532.801798 C286.514623,521.326798 285.054623,519.038798 284.389623,518.581798 C283.052623,517.675798 278.665623,518.320798 271.356623,520.511798 C269.028623,521.209798 268.324623,521.424798 267.476623,521.280798 L267.105623,521.221798 L266.766623,521.052798 C262.150623,518.816798 255.109623,518.711798 254.718623,518.705798 L254.704623,518.705798 C254.313623,518.711798 247.279623,518.816798 242.656623,521.052798 L242.317623,521.221798 L241.945623,521.280798 C241.098623,521.417798 240.393623,521.209798 238.066623,520.511798 C230.758623,518.320798 226.370623,517.668798 225.033623,518.581798 Z M241.030979,542.466353 L239.262785,544.234013 L237.495445,542.466353 C236.909659,541.880566 235.959911,541.880566 235.374125,542.466353 C234.788339,543.052139 234.788339,544.001887 235.374125,544.587673 L237.141785,546.355013 L235.374125,548.123207 C234.788339,548.708993 234.788339,549.658741 235.374125,550.244527 C235.959911,550.830314 236.909659,550.830314 237.495445,550.244527 L239.262785,548.476013 L241.030979,550.244527 C241.616766,550.830314 242.566513,550.830314 243.1523,550.244527 C243.738086,549.658741 243.738086,548.708993 243.1523,548.123207 L241.383785,546.355013 L243.1523,544.587673 C243.738086,544.001887 243.738086,543.052139 243.1523,542.466353 C242.566513,541.880566 241.616766,541.880566 241.030979,542.466353 Z M271.687834,542.466353 L269.919639,544.234013 L268.1523,542.466353 C267.566513,541.880566 266.616766,541.880566 266.030979,542.466353 C265.445193,543.052139 265.445193,544.001887 266.030979,544.587673 L267.798639,546.355013 L266.030979,548.123207 C265.445193,548.708993 265.445193,549.658741 266.030979,550.244527 C266.616766,550.830314 267.566513,550.830314 268.1523,550.244527 L269.919639,548.476013 L271.687834,550.244527 C272.27362,550.830314 273.223367,550.830314 273.809154,550.244527 C274.39494,549.658741 274.39494,548.708993 273.809154,548.123207 L272.040639,546.355013 L273.809154,544.587673 C274.39494,544.001887 274.39494,543.052139 273.809154,542.466353 C273.223367,541.880566 272.27362,541.880566 271.687834,542.466353 Z M237.530623,523.813798 C238.877623,524.321798 239.558623,525.826798 239.049623,527.173798 C238.541623,528.521798 232.100806,533.128643 231.345623,533.717798 C230.590441,534.306953 230.166623,534.486798 229.496623,534.486798 C228.831623,534.486798 228.166623,534.233798 227.657623,533.727798 C226.594623,532.670798 226.492623,529.179798 226.593623,526.436798 C226.656623,524.748798 226.901623,523.449798 227.895623,522.597798 C228.768623,521.848798 229.854623,520.916798 237.530623,523.813798 Z M271.968623,523.813798 C279.643623,520.916798 280.731623,521.848798 281.603623,522.597798 C282.597623,523.449798 282.843623,524.748798 282.906623,526.436798 C283.007623,529.179798 282.905623,532.670798 281.842623,533.727798 C281.333623,534.233798 280.668623,534.486798 280.003623,534.486798 C279.333623,534.486798 278.88195,534.244586 278.151623,533.717798 C277.930035,533.557966 276.777378,532.694728 274.693652,531.128084 C272.048531,528.981564 270.633521,527.663469 270.448623,527.173798 C269.940623,525.826798 270.620623,524.321798 271.968623,523.813798 Z" id="ded"></path>
        </g>
    </g>
</svg>