<?xml version="1.0" encoding="UTF-8"?>
<svg width="77px" height="70px" viewBox="0 0 77 70" version="1.1" xmlns="http://www.w3.org/2000/svg" xmlns:xlink="http://www.w3.org/1999/xlink">
    <title>flustered</title>
    <g id="Page-1" stroke="none" stroke-width="1" fill="none" fill-rule="evenodd">
        <g id="Artboard" transform="translate(-483, -513)" fill="#000000" fill-rule="nonzero">
            <path d="M504.879108,515.055822 L505.657936,515.285663 C505.917577,515.362979 506.177187,515.440922 506.436577,515.519261 C506.719034,515.604378 507.014171,515.692749 507.293023,515.775363 L507.820428,515.930242 L508.051753,515.996917 C513.555064,513.627178 520.659578,513.495987 521.434832,513.489757 L521.5662,513.489753 C522.34561,513.49592 529.445488,513.626211 534.9488,515.996917 C535.382431,515.872746 535.999062,515.688493 536.562981,515.519261 C543.307134,513.482461 550.199478,511.71303 553.934074,514.272547 C557.691168,516.84384 558.020868,523.710522 557.589147,531.112538 L557.537164,531.952587 C557.509689,532.373553 557.480097,532.79578 557.448871,533.218585 C557.410083,533.728285 557.371294,534.296066 557.365327,534.511362 C557.389992,534.793349 557.541325,535.614317 557.703734,536.47643 L557.785326,536.908611 L557.825811,537.122951 C559.031225,543.534763 561.548472,556.886111 558.675171,564.301302 C552.37161,580.570661 532.6792,583 521.500276,583 C510.321353,583 490.627948,580.570661 484.324387,564.302304 C481.45208,556.887113 483.968333,543.534763 485.173747,537.123952 C485.374649,536.059489 485.602405,534.865849 485.634231,534.512363 C485.628264,534.296066 485.589475,533.728285 485.550687,533.219586 C484.94798,525.039344 484.953948,517.087416 489.065484,514.266539 C492.512804,511.909453 498.650748,513.235821 504.879108,515.055822 Z M491.984536,518.58948 C491.323149,519.047109 489.87705,521.338258 490.72641,532.82905 C490.785089,533.64417 490.823877,534.186916 490.823877,534.552418 C490.823877,535.147235 490.687622,535.923302 490.272888,538.09729 C489.241522,543.567808 486.8297,556.383421 489.163946,562.403694 C491.549911,568.580183 496.523736,572.326331 502.151986,574.572418 C502.287247,574.605463 502.638329,574.435229 502.741764,574.161854 C502.832269,573.931537 502.878019,573.586062 502.702976,573.397804 C494.107109,568.362664 492.686719,559.737936 492.645963,554.787384 L492.645673,554.377936 C492.655522,552.93658 492.777949,551.854217 492.849761,551.335374 L492.873999,551.167623 C492.881076,551.120777 492.887042,551.083135 492.89158,551.055098 C492.89158,551.036072 492.898542,551.023054 492.898542,551.010036 C492.90451,550.996017 492.90451,550.990008 492.90451,550.990008 C493.617614,545.655677 498.182672,541.37179 500.446305,539.544278 C500.465202,539.531261 500.478131,539.518243 500.49106,539.505225 C500.555707,539.453153 500.620354,539.40709 500.679033,539.355018 C500.918724,539.165758 501.132556,539.009544 501.29467,538.885373 C501.417996,538.795249 501.521431,538.722149 501.59304,538.670077 C501.611937,538.664069 501.624866,538.650049 501.637795,538.644041 C501.715371,538.590968 501.792948,538.545906 501.871518,538.493835 C503.258938,537.664695 504.868146,537.18804 506.572833,537.18804 C511.869892,537.18804 516.176364,541.770338 516.176364,547.41109 C516.176364,549.937562 515.760635,551.793112 513.34185,553.469416 C513.311161,553.494736 513.085374,553.675842 512.831168,553.878179 L512.573662,554.082608 C512.31903,554.284148 512.091538,554.462066 512.057865,554.481807 C511.974321,554.52787 511.889783,554.573934 511.799278,554.611986 C511.76049,554.626005 511.410402,554.790231 510.949918,555.108669 L510.943951,555.11668 C509.918553,555.827657 508.34316,557.289666 508.34316,559.587824 C508.34316,560.573179 508.512237,561.39631 508.777786,562.082253 C509.828048,563.941808 511.124962,565.039316 512.733175,565.443872 C515.483151,566.141832 518.498676,564.711866 519.633476,564.092015 C518.238099,563.165742 517.18187,561.455391 516.870571,560.69034 C515.969494,558.510344 517.084402,557.146469 517.447419,556.780967 C518.581225,555.637395 520.24215,555.396064 521.428668,555.396064 C522.252168,555.396064 524.312909,555.533252 525.552139,556.780967 C526.01859,557.244604 526.985309,558.550399 526.116058,560.665305 C525.875373,561.253113 524.807209,563.152724 523.308398,564.13207 C523.321327,564.139079 523.340224,564.158105 523.354148,564.172125 C523.975751,564.653787 526.551678,566.515345 529.247947,566.083752 C531.083916,565.789347 532.7707,564.426474 534.241664,562.036189 C534.501245,561.358258 534.66336,560.554152 534.66336,559.587824 C534.66336,557.284659 533.042217,555.801621 532.024776,555.096652 C531.558324,554.777213 531.215199,554.620998 531.208237,554.612987 C531.115742,554.574935 531.033193,554.528872 530.94766,554.482809 C530.871079,554.431738 530.791513,554.379667 530.715926,554.327595 C528.297142,552.649289 526.831151,549.938563 526.831151,547.413093 C526.831151,541.773342 531.136628,537.190043 536.434682,537.190043 C538.121466,537.190043 539.695864,537.65368 541.084279,538.469802 C541.090246,538.469802 541.097208,538.47581 541.103176,538.47581 C541.11511,538.487827 541.129034,538.487827 541.135996,538.494836 C541.20661,538.546908 541.291149,538.59197 541.368725,538.645043 C541.375687,538.651051 541.394583,538.66507 541.414475,538.671078 C541.615377,538.821285 542.037073,539.127706 542.600992,539.585335 C544.895456,541.438882 549.395868,545.694731 550.096043,550.99101 C550.096043,550.99101 550.096043,550.997018 550.103005,551.011037 C550.103005,551.044083 550.121902,551.121189 550.134831,551.252369 C550.434195,553.302186 551.937979,566.939928 539.870908,573.633127 C539.825158,573.815377 539.845049,573.998629 539.902734,574.161854 C540.064848,574.579428 540.454718,574.677562 541.056431,574.448247 C541.154893,574.409194 541.25236,574.383158 541.355795,574.364132 C546.776181,572.098017 551.523245,568.395929 553.838595,562.409703 C556.171848,556.382419 553.760025,543.566807 552.729654,538.09729 C552.321882,535.923302 552.178664,535.147235 552.178664,534.552418 C552.178664,534.186916 552.217453,533.64417 552.276132,532.82905 C552.920404,524.173648 552.255506,520.737946 551.605485,519.373827 L551.538348,519.239972 C551.348587,518.880922 551.164026,518.690515 551.018006,518.58948 C549.688271,517.682233 545.325109,518.328121 538.055825,520.522136 C535.740475,521.221097 535.0403,521.436393 534.196908,521.292194 L533.827924,521.233113 L533.490766,521.063881 C528.899849,518.824803 521.897108,518.719659 521.508233,518.713651 L521.494309,518.713651 C521.105434,518.719659 514.109655,518.824803 509.511776,521.063881 L509.174618,521.233113 L508.804639,521.292194 C507.962242,521.429383 507.261072,521.221097 504.946717,520.522136 C497.678427,518.328121 493.314271,517.675224 491.984536,518.58948 Z M538.593165,542.470937 L534.527275,545.337398 C533.953289,545.74206 533.655164,546.392822 533.675817,547.046466 C533.65495,547.700292 533.953083,548.351377 534.527275,548.756183 L538.593165,551.622644 C539.489396,552.254489 540.728146,552.040161 541.359991,551.14393 L541.367294,551.133501 L541.455624,550.994912 C541.974887,550.102562 541.733505,548.946772 540.875004,548.341527 L539.037906,547.046193 L540.875004,545.752055 C541.77869,545.114955 541.998586,543.867833 541.367294,542.96008 C541.364871,542.956596 541.362436,542.95312 541.359991,542.949651 C540.728146,542.05342 539.489396,541.839093 538.593165,542.470937 Z M502.216171,542.949651 C502.213725,542.95312 502.211291,542.956596 502.208868,542.96008 C501.577575,543.867833 501.797472,545.114955 502.701158,545.752055 L504.538256,547.046193 L502.701158,548.341527 C501.842656,548.946772 501.601275,550.102562 502.120537,550.994912 L502.208868,551.133501 L502.216171,551.14393 C502.848015,552.040161 504.086765,552.254489 504.982996,551.622644 L509.048886,548.756183 C509.623079,548.351377 509.921212,547.700292 509.900344,547.046466 C509.920998,546.392822 509.622873,545.74206 509.048886,545.337398 L504.982996,542.470937 C504.086765,541.839093 502.848015,542.05342 502.216171,542.949651 Z M504.413629,523.82868 C505.75331,524.337379 506.43061,525.844451 505.924375,527.193304 C505.419136,528.543159 499.013317,533.156344 498.262238,533.74631 C497.511159,534.336276 497.089644,534.516368 496.423285,534.516368 C495.761898,534.516368 495.100512,534.26302 494.594278,533.756324 C493.537054,532.697869 493.435608,529.202065 493.536059,526.45529 C493.598717,524.764967 493.842386,523.464179 494.830984,522.611007 C495.699241,521.860976 496.779339,520.927693 504.413629,523.82868 Z M538.664499,523.82868 C546.297795,520.927693 547.379883,521.860976 548.247144,522.611007 C549.235743,523.464179 549.480406,524.764967 549.543064,526.45529 C549.643515,529.202065 549.54207,532.697869 548.484846,533.756324 C547.978612,534.26302 547.317225,534.516368 546.655839,534.516368 C545.989479,534.516368 545.54026,534.273823 544.813902,533.74631 C544.593518,533.586258 543.447124,532.721832 541.37472,531.153031 C538.743973,529.003558 537.336652,527.683649 537.152759,527.193304 C536.647519,525.844451 537.323824,524.337379 538.664499,523.82868 Z" id="flustered"></path>
        </g>
    </g>
</svg>