<?xml version="1.0" encoding="UTF-8"?>
<svg width="78px" height="70px" viewBox="0 0 78 70" version="1.1" xmlns="http://www.w3.org/2000/svg" xmlns:xlink="http://www.w3.org/1999/xlink">
    <title>mellow</title>
    <g id="Page-1" stroke="none" stroke-width="1" fill="none" fill-rule="evenodd">
        <g id="Artboard" transform="translate(-304, -513)" fill="#000000" fill-rule="nonzero">
            <path d="M325.216509,514.828607 L325.998645,515.052997 C326.520511,515.204455 327.043008,515.359337 327.564623,515.515798 C328.132623,515.685798 328.751623,515.868798 329.188623,515.992798 C334.820813,513.584057 342.120964,513.491339 342.680446,513.488858 L342.74105,513.488857 C343.305111,513.491305 350.600433,513.583074 356.232623,515.992798 C356.668623,515.868798 357.288623,515.684798 357.855623,515.515798 C358.377239,515.359337 358.899736,515.204455 359.421601,515.053 L360.203737,514.828616 C366.193583,513.131584 371.999892,512.009721 375.321623,514.270798 C379.455623,517.080798 379.462623,525.027798 378.855623,533.190798 L378.829985,533.534225 C378.800919,533.934416 378.77629,534.314576 378.771623,534.481798 C378.802623,534.833798 379.032623,536.026798 379.234623,537.089798 C380.446623,543.492798 382.977623,556.825798 380.088623,564.230798 C373.814003,580.315328 354.345277,582.853896 343.050369,582.903059 L342.370877,582.903059 C331.075949,582.853896 311.606243,580.315338 305.331623,564.231798 C302.443623,556.826798 304.973623,543.492798 306.185623,537.090798 C306.387623,536.027798 306.616623,534.835798 306.648623,534.482798 C306.642623,534.266798 306.603623,533.699798 306.564623,533.191798 C305.958623,525.022798 305.964623,517.081798 310.098623,514.264798 C313.420354,512.009029 319.226663,513.131504 325.216509,514.828607 Z M313.033623,518.581798 C312.368623,519.038798 310.914623,521.326798 311.768623,532.801798 C311.827623,533.615798 311.866623,534.157798 311.866623,534.522798 C311.866623,535.116798 311.729623,535.891798 311.312623,538.062798 C310.275623,543.525798 307.850623,556.323798 310.197623,562.335798 C312.596623,568.503798 317.597623,572.244798 323.256623,574.487798 C323.392623,574.520798 323.745623,574.350798 323.849623,574.077798 C323.940623,573.847798 323.986623,573.502798 323.810623,573.314798 C311.637623,566.232798 313.776623,552.039798 313.945623,551.002798 C313.945623,550.983798 313.952623,550.970798 313.952623,550.957798 C313.958623,550.943798 313.958623,550.937798 313.958623,550.937798 C314.675623,545.610798 319.265623,541.332798 321.541623,539.507798 C321.560623,539.494798 321.573623,539.481798 321.586623,539.468798 C321.651623,539.416798 321.716623,539.370798 321.775623,539.318798 C322.016623,539.129798 322.231623,538.973798 322.394623,538.849798 C322.518623,538.759798 322.622623,538.686798 322.694623,538.634798 C322.713623,538.628798 322.726623,538.614798 322.739623,538.608798 C322.817623,538.555798 322.895623,538.510798 322.974623,538.458798 C324.369623,537.630798 325.987623,537.154798 327.701623,537.154798 C333.027623,537.154798 337.357623,541.730798 337.357623,547.363798 C337.357623,549.886798 336.939623,551.739798 334.507623,553.413798 C334.435623,553.472798 333.295623,554.378798 333.216623,554.424798 C333.132623,554.470798 333.047623,554.516798 332.956623,554.554798 C332.917623,554.568798 332.565623,554.732798 332.102623,555.050798 L332.096623,555.058798 C331.065623,555.768798 329.481623,557.228798 329.481623,559.523798 C329.481623,560.507798 329.651623,561.329798 329.918623,562.014798 C330.974623,563.871798 332.278623,564.967798 333.895623,565.371798 C336.660623,566.068798 339.692623,564.640798 340.833623,564.021798 C339.430623,563.096798 338.368623,561.388798 338.055623,560.624798 C337.149623,558.447798 338.270623,557.085798 338.635623,556.720798 C339.775623,555.578798 341.445623,555.337798 342.638623,555.337798 C343.466623,555.337798 345.538623,555.474798 346.784623,556.720798 C347.253623,557.183798 348.225623,558.487798 347.351623,560.599798 C347.109623,561.186798 346.035623,563.083798 344.528623,564.061798 C344.541623,564.068798 344.560623,564.087798 344.574623,564.101798 C345.199623,564.582798 347.789623,566.441798 350.500623,566.010798 C352.346623,565.716798 354.042623,564.355798 355.521623,561.968798 C355.782623,561.291798 355.945623,560.488798 355.945623,559.523798 C355.945623,557.223798 354.315623,555.742798 353.292623,555.038798 C352.823623,554.719798 352.478623,554.563798 352.471623,554.555798 C352.378623,554.517798 352.295623,554.471798 352.209623,554.425798 C352.132623,554.374798 352.052623,554.322798 351.976623,554.270798 C349.544623,552.594798 348.070623,549.887798 348.070623,547.365798 C348.070623,541.733798 352.399623,537.156798 357.726623,537.156798 C359.422623,537.156798 361.005623,537.619798 362.401623,538.434798 C362.407623,538.434798 362.414623,538.440798 362.420623,538.440798 C362.432623,538.452798 362.446623,538.452798 362.453623,538.459798 C362.524623,538.511798 362.609623,538.556798 362.687623,538.609798 C362.694623,538.615798 362.713623,538.629798 362.733623,538.635798 C362.935623,538.785798 363.359623,539.091798 363.926623,539.548798 C366.233623,541.399798 370.758623,545.649798 371.462623,550.938798 C371.462623,550.938798 371.462623,550.944798 371.469623,550.958798 C371.469623,550.991798 371.488623,551.068798 371.501623,551.199798 C371.802623,553.246798 373.314623,566.865798 361.181623,573.549798 C361.135623,573.731798 361.155623,573.914798 361.213623,574.077798 C361.376623,574.494798 361.768623,574.592798 362.373623,574.363798 C362.472623,574.324798 362.570623,574.298798 362.674623,574.279798 C368.124623,572.016798 372.897623,568.319798 375.225623,562.341798 C377.571623,556.322798 375.146623,543.524798 374.110623,538.062798 C373.700623,535.891798 373.556623,535.116798 373.556623,534.522798 C373.556623,534.157798 373.595623,533.615798 373.654623,532.801798 C374.514623,521.326798 373.054623,519.038798 372.389623,518.581798 C371.052623,517.675798 366.665623,518.320798 359.356623,520.511798 C357.028623,521.209798 356.324623,521.424798 355.476623,521.280798 L355.105623,521.221798 L354.766623,521.052798 C350.150623,518.816798 343.109623,518.711798 342.718623,518.705798 L342.704623,518.705798 C342.313623,518.711798 335.279623,518.816798 330.656623,521.052798 L330.317623,521.221798 L329.945623,521.280798 C329.098623,521.417798 328.393623,521.209798 326.066623,520.511798 C318.758623,518.320798 314.370623,517.668798 313.033623,518.581798 Z M330.012555,544.512555 L325.012555,544.512555 C323.631843,544.512555 322.512555,545.631843 322.512555,547.012555 C322.512555,548.393267 323.631843,549.512555 325.012555,549.512555 L330.012555,549.512555 C331.393267,549.512555 332.512555,548.393267 332.512555,547.012555 C332.512555,545.631843 331.393267,544.512555 330.012555,544.512555 Z M361.012555,544.5 L356.012555,544.5 C354.631843,544.5 353.512555,545.619288 353.512555,547 C353.512555,548.380712 354.631843,549.5 356.012555,549.5 L361.012555,549.5 C362.393267,549.5 363.512555,548.380712 363.512555,547 C363.512555,545.619288 362.393267,544.5 361.012555,544.5 Z M325.530623,523.813798 C326.877623,524.321798 327.558623,525.826798 327.049623,527.173798 C326.541623,528.521798 320.100806,533.128643 319.345623,533.717798 C318.590441,534.306953 318.166623,534.486798 317.496623,534.486798 C316.831623,534.486798 316.166623,534.233798 315.657623,533.727798 C314.594623,532.670798 314.492623,529.179798 314.593623,526.436798 C314.656623,524.748798 314.901623,523.449798 315.895623,522.597798 C316.768623,521.848798 317.854623,520.916798 325.530623,523.813798 Z M359.968623,523.813798 C367.643623,520.916798 368.731623,521.848798 369.603623,522.597798 C370.597623,523.449798 370.843623,524.748798 370.906623,526.436798 C371.007623,529.179798 370.905623,532.670798 369.842623,533.727798 C369.333623,534.233798 368.668623,534.486798 368.003623,534.486798 C367.333623,534.486798 366.88195,534.244586 366.151623,533.717798 C365.930035,533.557966 364.777378,532.694728 362.693652,531.128084 C360.048531,528.981564 358.633521,527.663469 358.448623,527.173798 C357.940623,525.826798 358.620623,524.321798 359.968623,523.813798 Z" id="mellow"></path>
        </g>
    </g>
</svg>