<?xml version="1.0" encoding="UTF-8"?>
<svg width="78px" height="70px" viewBox="0 0 78 70" version="1.1" xmlns="http://www.w3.org/2000/svg" xmlns:xlink="http://www.w3.org/1999/xlink">
    <title>normal</title>
    <g id="Page-1" stroke="none" stroke-width="1" fill="none" fill-rule="evenodd">
        <g id="Artboard" transform="translate(-121, -513)" fill="#000000" fill-rule="nonzero">
            <path d="M142.216509,514.828607 L142.998645,515.052997 C143.520511,515.204455 144.043008,515.359337 144.564623,515.515798 C145.132623,515.685798 145.751623,515.868798 146.188623,515.992798 C151.820813,513.584057 159.120964,513.491339 159.680446,513.488858 L159.74105,513.488857 C160.305111,513.491305 167.600433,513.583074 173.232623,515.992798 C173.668623,515.868798 174.288623,515.684798 174.855623,515.515798 C175.377239,515.359337 175.899736,515.204455 176.421601,515.053 L177.203737,514.828616 C183.193583,513.131584 188.999892,512.009721 192.321623,514.270798 C196.455623,517.080798 196.462623,525.027798 195.855623,533.190798 L195.829985,533.534225 C195.800919,533.934416 195.77629,534.314576 195.771623,534.481798 C195.802623,534.833798 196.032623,536.026798 196.234623,537.089798 C197.446623,543.492798 199.977623,556.825798 197.088623,564.230798 C190.814003,580.315328 171.345277,582.853896 160.050369,582.903059 L159.370877,582.903059 C148.075949,582.853896 128.606243,580.315338 122.331623,564.231798 C119.443623,556.826798 121.973623,543.492798 123.185623,537.090798 C123.387623,536.027798 123.616623,534.835798 123.648623,534.482798 C123.642623,534.266798 123.603623,533.699798 123.564623,533.191798 C122.958623,525.022798 122.964623,517.081798 127.098623,514.264798 C130.420354,512.009029 136.226663,513.131504 142.216509,514.828607 Z M130.033623,518.581798 C129.368623,519.038798 127.914623,521.326798 128.768623,532.801798 C128.827623,533.615798 128.866623,534.157798 128.866623,534.522798 C128.866623,535.116798 128.729623,535.891798 128.312623,538.062798 C127.275623,543.525798 124.850623,556.323798 127.197623,562.335798 C129.596623,568.503798 134.597623,572.244798 140.256623,574.487798 C140.392623,574.520798 140.745623,574.350798 140.849623,574.077798 C140.940623,573.847798 140.986623,573.502798 140.810623,573.314798 C128.637623,566.232798 130.776623,552.039798 130.945623,551.002798 C130.945623,550.983798 130.952623,550.970798 130.952623,550.957798 C130.958623,550.943798 130.958623,550.937798 130.958623,550.937798 C131.675623,545.610798 136.265623,541.332798 138.541623,539.507798 C138.560623,539.494798 138.573623,539.481798 138.586623,539.468798 C138.651623,539.416798 138.716623,539.370798 138.775623,539.318798 C139.016623,539.129798 139.231623,538.973798 139.394623,538.849798 C139.518623,538.759798 139.622623,538.686798 139.694623,538.634798 C139.713623,538.628798 139.726623,538.614798 139.739623,538.608798 C139.817623,538.555798 139.895623,538.510798 139.974623,538.458798 C141.369623,537.630798 142.987623,537.154798 144.701623,537.154798 C150.027623,537.154798 154.357623,541.730798 154.357623,547.363798 C154.357623,549.886798 153.939623,551.739798 151.507623,553.413798 C151.435623,553.472798 150.295623,554.378798 150.216623,554.424798 C150.132623,554.470798 150.047623,554.516798 149.956623,554.554798 C149.917623,554.568798 149.565623,554.732798 149.102623,555.050798 L149.096623,555.058798 C148.065623,555.768798 146.481623,557.228798 146.481623,559.523798 C146.481623,560.507798 146.651623,561.329798 146.918623,562.014798 C147.974623,563.871798 149.278623,564.967798 150.895623,565.371798 C153.660623,566.068798 156.692623,564.640798 157.833623,564.021798 C156.430623,563.096798 155.368623,561.388798 155.055623,560.624798 C154.149623,558.447798 155.270623,557.085798 155.635623,556.720798 C156.775623,555.578798 158.445623,555.337798 159.638623,555.337798 C160.466623,555.337798 162.538623,555.474798 163.784623,556.720798 C164.253623,557.183798 165.225623,558.487798 164.351623,560.599798 C164.109623,561.186798 163.035623,563.083798 161.528623,564.061798 C161.541623,564.068798 161.560623,564.087798 161.574623,564.101798 C162.199623,564.582798 164.789623,566.441798 167.500623,566.010798 C169.346623,565.716798 171.042623,564.355798 172.521623,561.968798 C172.782623,561.291798 172.945623,560.488798 172.945623,559.523798 C172.945623,557.223798 171.315623,555.742798 170.292623,555.038798 C169.823623,554.719798 169.478623,554.563798 169.471623,554.555798 C169.378623,554.517798 169.295623,554.471798 169.209623,554.425798 C169.132623,554.374798 169.052623,554.322798 168.976623,554.270798 C166.544623,552.594798 165.070623,549.887798 165.070623,547.365798 C165.070623,541.733798 169.399623,537.156798 174.726623,537.156798 C176.422623,537.156798 178.005623,537.619798 179.401623,538.434798 C179.407623,538.434798 179.414623,538.440798 179.420623,538.440798 C179.432623,538.452798 179.446623,538.452798 179.453623,538.459798 C179.524623,538.511798 179.609623,538.556798 179.687623,538.609798 C179.694623,538.615798 179.713623,538.629798 179.733623,538.635798 C179.935623,538.785798 180.359623,539.091798 180.926623,539.548798 C183.233623,541.399798 187.758623,545.649798 188.462623,550.938798 C188.462623,550.938798 188.462623,550.944798 188.469623,550.958798 C188.469623,550.991798 188.488623,551.068798 188.501623,551.199798 C188.802623,553.246798 190.314623,566.865798 178.181623,573.549798 C178.135623,573.731798 178.155623,573.914798 178.213623,574.077798 C178.376623,574.494798 178.768623,574.592798 179.373623,574.363798 C179.472623,574.324798 179.570623,574.298798 179.674623,574.279798 C185.124623,572.016798 189.897623,568.319798 192.225623,562.341798 C194.571623,556.322798 192.146623,543.524798 191.110623,538.062798 C190.700623,535.891798 190.556623,535.116798 190.556623,534.522798 C190.556623,534.157798 190.595623,533.615798 190.654623,532.801798 C191.514623,521.326798 190.054623,519.038798 189.389623,518.581798 C188.052623,517.675798 183.665623,518.320798 176.356623,520.511798 C174.028623,521.209798 173.324623,521.424798 172.476623,521.280798 L172.105623,521.221798 L171.766623,521.052798 C167.150623,518.816798 160.109623,518.711798 159.718623,518.705798 L159.704623,518.705798 C159.313623,518.711798 152.279623,518.816798 147.656623,521.052798 L147.317623,521.221798 L146.945623,521.280798 C146.098623,521.417798 145.393623,521.209798 143.066623,520.511798 C135.758623,518.320798 131.370623,517.668798 130.033623,518.581798 Z M144.5,542 C143.119288,542 142,543.119288 142,544.5 L142,549.5 C142,550.880712 143.119288,552 144.5,552 C145.880712,552 147,550.880712 147,549.5 L147,544.5 C147,543.119288 145.880712,542 144.5,542 Z M175.5,542 C174.119288,542 173,543.119288 173,544.5 L173,549.5 C173,550.880712 174.119288,552 175.5,552 C176.880712,552 178,550.880712 178,549.5 L178,544.5 C178,543.119288 176.880712,542 175.5,542 Z M142.530623,523.813798 C143.877623,524.321798 144.558623,525.826798 144.049623,527.173798 C143.541623,528.521798 137.100806,533.128643 136.345623,533.717798 C135.590441,534.306953 135.166623,534.486798 134.496623,534.486798 C133.831623,534.486798 133.166623,534.233798 132.657623,533.727798 C131.594623,532.670798 131.492623,529.179798 131.593623,526.436798 C131.656623,524.748798 131.901623,523.449798 132.895623,522.597798 C133.768623,521.848798 134.854623,520.916798 142.530623,523.813798 Z M176.968623,523.813798 C184.643623,520.916798 185.731623,521.848798 186.603623,522.597798 C187.597623,523.449798 187.843623,524.748798 187.906623,526.436798 C188.007623,529.179798 187.905623,532.670798 186.842623,533.727798 C186.333623,534.233798 185.668623,534.486798 185.003623,534.486798 C184.333623,534.486798 183.88195,534.244586 183.151623,533.717798 C182.930035,533.557966 181.777378,532.694728 179.693652,531.128084 C177.048531,528.981564 175.633521,527.663469 175.448623,527.173798 C174.940623,525.826798 175.620623,524.321798 176.968623,523.813798 Z" id="normal"></path>
        </g>
    </g>
</svg>