<?xml version="1.0" encoding="UTF-8"?>
<svg width="90px" height="90px" viewBox="0 0 90 90" version="1.1" xmlns="http://www.w3.org/2000/svg" xmlns:xlink="http://www.w3.org/1999/xlink">
    <title>nuki-ninja</title>
    <g id="nuki-ninja" stroke="none" stroke-width="1" fill="none" fill-rule="evenodd">
        <path d="M24.216509,11.8286072 L24.998645,12.0529968 C25.5205107,12.2044551 26.0430077,12.3593368 26.5646231,12.5157983 C27.1326231,12.6857983 27.7516231,12.8687983 28.1886231,12.9927983 C33.8208128,10.584057 41.1209641,10.4913388 41.6804462,10.4888576 L41.7410499,10.4888568 C42.3051112,10.4913049 49.6004335,10.5830742 55.2326231,12.9927983 C55.6686231,12.8687983 56.2886231,12.6847983 56.8556231,12.5157983 C57.3772385,12.3593368 57.8997355,12.2044551 58.4216013,12.0529995 L59.2037373,11.8286164 C65.1935832,10.1315838 70.9998924,9.00972142 74.3216231,11.2707983 C78.4556231,14.0807983 78.4626231,22.0277983 77.8556231,30.1907983 L77.8299853,30.534225 C77.8009194,30.9344156 77.7762898,31.3145761 77.7716231,31.4817983 C77.8026231,31.8337983 78.0326231,33.0267983 78.2346231,34.0897983 C79.4466231,40.4927983 81.9776231,53.8257983 79.0886231,61.2307983 C72.8140031,77.3153283 53.3452769,79.8538962 42.0503691,79.9030591 L41.3708768,79.9030592 C30.0759494,79.8538963 10.6062431,77.3153383 4.33162312,61.2317983 C1.44362312,53.8267983 3.97362312,40.4927983 5.18562312,34.0907983 C5.38762312,33.0277983 5.61662312,31.8357983 5.64862312,31.4827983 C5.64262312,31.2667983 5.60362312,30.6997983 5.56462312,30.1917983 C4.95862312,22.0227983 4.96462312,14.0817983 9.09862312,11.2647983 C12.4203539,9.00902911 18.2266631,10.131504 24.216509,11.8286072 Z M22.849446,34.9996694 L10.324,35 L10.3126231,35.0627983 C9.29518916,40.4227229 6.94163843,52.8434662 9.06982916,58.9883439 L9.19762312,59.3357983 C11.5966231,65.5037983 16.5976231,69.2447983 22.2566231,71.4877983 C22.3926231,71.5207983 22.7456231,71.3507983 22.8496231,71.0777983 C22.9406231,70.8477983 22.9866231,70.5027983 22.8106231,70.3147983 C10.6376231,63.2327983 12.7766231,49.0397983 12.9456231,48.0027983 C12.9456231,47.9837983 12.9526231,47.9707983 12.9526231,47.9577983 C12.9586231,47.9437983 12.9586231,47.9377983 12.9586231,47.9377983 C13.6756231,42.6107983 18.2656231,38.3327983 20.5416231,36.5077983 C20.5606231,36.4947983 20.5736231,36.4817983 20.5866231,36.4687983 C20.6516231,36.4167983 20.7166231,36.3707983 20.7756231,36.3187983 C21.0166231,36.1297983 21.2316231,35.9737983 21.3946231,35.8497983 C21.5186231,35.7597983 21.6226231,35.6867983 21.6946231,35.6347983 C21.7136231,35.6287983 21.7266231,35.6147983 21.7396231,35.6087983 C21.8176231,35.5557983 21.8956231,35.5107983 21.9746231,35.4587983 C22.257419,35.2909453 22.5493793,35.137558 22.849446,34.9996694 Z M73.0986428,34.9993568 L60.5646716,34.9992267 C60.8503928,35.1305001 61.1295592,35.2759645 61.4016231,35.4347983 C61.4076231,35.4347983 61.4146231,35.4407983 61.4206231,35.4407983 C61.4326231,35.4527983 61.4466231,35.4527983 61.4536231,35.4597983 C61.5246231,35.5117983 61.6096231,35.5567983 61.6876231,35.6097983 C61.6946231,35.6157983 61.7136231,35.6297983 61.7336231,35.6357983 C61.9356231,35.7857983 62.3596231,36.0917983 62.9266231,36.5487983 C65.2336231,38.3997983 69.7586231,42.6497983 70.4626231,47.9387983 C70.4626231,47.9387983 70.4626231,47.9447983 70.4696231,47.9587983 C70.4696231,47.9917983 70.4886231,48.0687983 70.5016231,48.1997983 C70.8026231,50.2467983 72.3146231,63.8657983 60.1816231,70.5497983 C60.1356231,70.7317983 60.1556231,70.9147983 60.2136231,71.0777983 C60.3766231,71.4947983 60.7686231,71.5927983 61.3736231,71.3637983 C61.4726231,71.3247983 61.5706231,71.2987983 61.6746231,71.2797983 C67.1246231,69.0167983 71.8976231,65.3197983 74.2256231,59.3417983 C76.5716231,53.3227983 74.1466231,40.5247983 73.1106231,35.0627983 C73.1066041,35.0415174 73.1026107,35.0203706 73.0986428,34.9993568 Z M30.550032,34.9999458 C33.9653882,36.57387 36.3576231,40.1768489 36.3576231,44.3637983 C36.3576231,46.8867983 35.9396231,48.7397983 33.5076231,50.4137983 C33.4356231,50.4727983 32.2956231,51.3787983 32.2166231,51.4247983 C32.1326231,51.4707983 32.0476231,51.5167983 31.9566231,51.5547983 C31.9176231,51.5687983 31.5656231,51.7327983 31.1026231,52.0507983 L31.0966231,52.0587983 C30.0656231,52.7687983 28.4816231,54.2287983 28.4816231,56.5237983 C28.4816231,57.5077983 28.6516231,58.3297983 28.9186231,59.0147983 C29.9746231,60.8717983 31.2786231,61.9677983 32.8956231,62.3717983 C35.6606231,63.0687983 38.6926231,61.6407983 39.8336231,61.0217983 C38.4306231,60.0967983 37.3686231,58.3887983 37.0556231,57.6247983 C36.1496231,55.4477983 37.2706231,54.0857983 37.6356231,53.7207983 C38.7756231,52.5787983 40.4456231,52.3377983 41.6386231,52.3377983 C42.4666231,52.3377983 44.5386231,52.4747983 45.7846231,53.7207983 C46.2536231,54.1837983 47.2256231,55.4877983 46.3516231,57.5997983 C46.1096231,58.1867983 45.0356231,60.0837983 43.5286231,61.0617983 C43.5416231,61.0687983 43.5606231,61.0877983 43.5746231,61.1017983 C44.1996231,61.5827983 46.7896231,63.4417983 49.5006231,63.0107983 C51.3466231,62.7167983 53.0426231,61.3557983 54.5216231,58.9687983 C54.7826231,58.2917983 54.9456231,57.4887983 54.9456231,56.5237983 C54.9456231,54.2237983 53.3156231,52.7427983 52.2926231,52.0387983 C51.8236231,51.7197983 51.4786231,51.5637983 51.4716231,51.5557983 C51.3786231,51.5177983 51.2956231,51.4717983 51.2096231,51.4257983 C51.1326231,51.3747983 51.0526231,51.3227983 50.9766231,51.2707983 C48.5446231,49.5947983 47.0706231,46.8877983 47.0706231,44.3657983 C47.0706231,40.1780064 49.4641179,36.5735217 52.8816707,35.0003047 L30.550032,34.9999458 Z M22.4167947,41.1446728 C21.6248509,42.2756857 21.8997208,43.8345502 23.0307337,44.626494 L27.126494,47.4943761 C28.2575069,48.2863199 29.8163714,48.0114501 30.6083152,46.8804371 C31.400259,45.7494242 31.1253891,44.1905597 29.9943761,43.3986159 L25.8986159,40.5307337 C24.767603,39.7387899 23.2087385,40.0136598 22.4167947,41.1446728 Z M58.113939,40.5181788 L54.0181788,43.386061 C52.8871658,44.1780048 52.612296,45.7368692 53.4042398,46.8678822 C54.1961836,47.9988951 55.755048,48.273765 56.886061,47.4818212 L60.9818212,44.613939 C62.1128342,43.8219952 62.387704,42.2631308 61.5957602,41.1321178 C60.8038164,40.0011049 59.244952,39.726235 58.113939,40.5181788 Z M86.5427489,25 C86.6787114,25 86.8132459,25.0277258 86.9381298,25.0814828 C87.4454129,25.2998456 87.679629,25.8880979 87.4612661,26.3953809 L85.4706902,31.0197272 C85.420979,31.1352123 85.3499354,31.2402871 85.2612836,31.3294436 C84.8718691,31.7210745 84.2387067,31.7228714 83.8470757,31.3334569 L79.1964081,26.7091106 C79.0076429,26.5214137 78.9015054,26.2662 78.9015054,26 C78.9015054,25.4477153 79.3492207,25 79.9015054,25 Z M83.9511202,15.0568433 C84.0905078,15.1363396 84.208718,15.2482115 84.2957676,15.3830111 L87.2211621,19.9130993 C87.5207699,20.3770536 87.3875406,20.996043 86.9235863,21.2956508 C86.8241983,21.3598326 86.7142095,21.4058683 86.5987354,21.4316169 L80.2870451,22.8390094 C79.7479987,22.959207 79.2135759,22.6196629 79.0933783,22.0806166 C79.0392458,21.83785 79.0775282,21.5836229 79.2007525,21.3675633 L82.5870482,15.4300826 C82.8606591,14.9503373 83.471375,14.7832324 83.9511202,15.0568433 Z M12.0336231,15.5817983 C11.5945028,15.8835698 10.8113488,16.983726 10.5758781,21.0002746 L13.9622691,20.9994995 C14.157919,20.4467682 14.4522659,19.9778189 14.8956231,19.5977983 C15.7686231,18.8487983 16.8546231,17.9167983 24.5306231,20.8137983 C24.66811,20.8656494 24.7986585,20.9278872 24.9217113,20.9992837 L58.577287,20.9992837 C58.7004045,20.9278872 58.8310342,20.8656494 58.9686231,20.8137983 C66.6436231,17.9167983 67.7316231,18.8487983 68.6036231,19.5977983 C69.0469804,19.9778189 69.3415261,20.4467682 69.5373965,20.9994995 L72.8500341,21.0002746 C72.6145137,16.983726 71.8287435,15.8835698 71.3896231,15.5817983 C70.0526231,14.6757983 65.6656231,15.3207983 58.3566231,17.5117983 C56.0286231,18.2097983 55.3246231,18.4247983 54.4766231,18.2807983 L54.1056231,18.2217983 L53.7666231,18.0527983 C49.1506231,15.8167983 42.1096231,15.7117983 41.7186231,15.7057983 L41.7046231,15.7057983 C41.3136231,15.7117983 34.2796231,15.8167983 29.6566231,18.0527983 L29.3176231,18.2217983 L28.9456231,18.2807983 C28.0986231,18.4177983 27.3936231,18.2097983 25.0666231,17.5117983 C17.7586231,15.3207983 13.3706231,14.6687983 12.0336231,15.5817983 Z" id="ninjinuki" fill="#000000" fill-rule="nonzero"></path>
    </g>
</svg>