<?xml version="1.0" encoding="UTF-8"?>
<svg width="90px" height="90px" viewBox="0 0 90 90" version="1.1" xmlns="http://www.w3.org/2000/svg" xmlns:xlink="http://www.w3.org/1999/xlink">
    <title>nuki-ded</title>
    <g id="nuki-ded" stroke="none" stroke-width="1" fill="none" fill-rule="evenodd">
        <path d="M27.216509,11.8286072 L27.998645,12.0529968 C28.5205107,12.2044551 29.0430077,12.3593368 29.5646231,12.5157983 C30.1326231,12.6857983 30.7516231,12.8687983 31.1886231,12.9927983 C36.8208128,10.584057 44.1209641,10.4913388 44.6804462,10.4888576 L44.7410499,10.4888568 C45.3051112,10.4913049 52.6004335,10.5830742 58.2326231,12.9927983 C58.6686231,12.8687983 59.2886231,12.6847983 59.8556231,12.5157983 C60.3772385,12.3593368 60.8997355,12.2044551 61.4216013,12.0529995 L62.2037373,11.8286164 C68.1935832,10.1315838 73.9998924,9.00972142 77.3216231,11.2707983 C81.4556231,14.0807983 81.4626231,22.0277983 80.8556231,30.1907983 L80.8299853,30.534225 C80.8009194,30.9344156 80.7762898,31.3145761 80.7716231,31.4817983 C80.8026231,31.8337983 81.0326231,33.0267983 81.2346231,34.0897983 C82.4466231,40.4927983 84.9776231,53.8257983 82.0886231,61.2307983 C75.8140031,77.3153283 56.3452769,79.8538962 45.0503691,79.9030591 L44.3708768,79.9030592 C33.0759494,79.8538963 13.6062431,77.3153383 7.33162312,61.2317983 C4.44362312,53.8267983 6.97362312,40.4927983 8.18562312,34.0907983 C8.38762312,33.0277983 8.61662312,31.8357983 8.64862312,31.4827983 C8.64262312,31.2667983 8.60362312,30.6997983 8.56462312,30.1917983 C7.95862312,22.0227983 7.96462312,14.0817983 12.0986231,11.2647983 C15.4203539,9.00902911 21.2266631,10.131504 27.216509,11.8286072 Z M15.0336231,15.5817983 C14.3686231,16.0387983 12.9146231,18.3267983 13.7686231,29.8017983 C13.8276231,30.6157983 13.8666231,31.1577983 13.8666231,31.5227983 C13.8666231,32.1167983 13.7296231,32.8917983 13.3126231,35.0627983 C12.2756231,40.5257983 9.85062312,53.3237983 12.1976231,59.3357983 C14.5966231,65.5037983 19.5976231,69.2447983 25.2566231,71.4877983 C25.3926231,71.5207983 25.7456231,71.3507983 25.8496231,71.0777983 C25.9406231,70.8477983 25.9866231,70.5027983 25.8106231,70.3147983 C13.6376231,63.2327983 15.7766231,49.0397983 15.9456231,48.0027983 C15.9456231,47.9837983 15.9526231,47.9707983 15.9526231,47.9577983 C15.9586231,47.9437983 15.9586231,47.9377983 15.9586231,47.9377983 C16.6756231,42.6107983 21.2656231,38.3327983 23.5416231,36.5077983 C23.5606231,36.4947983 23.5736231,36.4817983 23.5866231,36.4687983 C23.6516231,36.4167983 23.7166231,36.3707983 23.7756231,36.3187983 C24.0166231,36.1297983 24.2316231,35.9737983 24.3946231,35.8497983 C24.5186231,35.7597983 24.6226231,35.6867983 24.6946231,35.6347983 C24.7136231,35.6287983 24.7266231,35.6147983 24.7396231,35.6087983 C24.8176231,35.5557983 24.8956231,35.5107983 24.9746231,35.4587983 C26.3696231,34.6307983 27.9876231,34.1547983 29.7016231,34.1547983 C35.0276231,34.1547983 39.3576231,38.7307983 39.3576231,44.3637983 C39.3576231,46.8867983 38.9396231,48.7397983 36.5076231,50.4137983 C36.4356231,50.4727983 35.2956231,51.3787983 35.2166231,51.4247983 C35.1326231,51.4707983 35.0476231,51.5167983 34.9566231,51.5547983 C34.9176231,51.5687983 34.5656231,51.7327983 34.1026231,52.0507983 L34.0966231,52.0587983 C33.0656231,52.7687983 31.4816231,54.2287983 31.4816231,56.5237983 C31.4816231,57.5077983 31.6516231,58.3297983 31.9186231,59.0147983 C32.9746231,60.8717983 34.2786231,61.9677983 35.8956231,62.3717983 C38.6606231,63.0687983 41.6926231,61.6407983 42.8336231,61.0217983 C41.4306231,60.0967983 40.3686231,58.3887983 40.0556231,57.6247983 C39.1496231,55.4477983 40.2706231,54.0857983 40.6356231,53.7207983 C41.7756231,52.5787983 43.4456231,52.3377983 44.6386231,52.3377983 C45.4666231,52.3377983 47.5386231,52.4747983 48.7846231,53.7207983 C49.2536231,54.1837983 50.2256231,55.4877983 49.3516231,57.5997983 C49.1096231,58.1867983 48.0356231,60.0837983 46.5286231,61.0617983 C46.5416231,61.0687983 46.5606231,61.0877983 46.5746231,61.1017983 C47.1996231,61.5827983 49.7896231,63.4417983 52.5006231,63.0107983 C54.3466231,62.7167983 56.0426231,61.3557983 57.5216231,58.9687983 C57.7826231,58.2917983 57.9456231,57.4887983 57.9456231,56.5237983 C57.9456231,54.2237983 56.3156231,52.7427983 55.2926231,52.0387983 C54.8236231,51.7197983 54.4786231,51.5637983 54.4716231,51.5557983 C54.3786231,51.5177983 54.2956231,51.4717983 54.2096231,51.4257983 C54.1326231,51.3747983 54.0526231,51.3227983 53.9766231,51.2707983 C51.5446231,49.5947983 50.0706231,46.8877983 50.0706231,44.3657983 C50.0706231,38.7337983 54.3996231,34.1567983 59.7266231,34.1567983 C61.4226231,34.1567983 63.0056231,34.6197983 64.4016231,35.4347983 C64.4076231,35.4347983 64.4146231,35.4407983 64.4206231,35.4407983 C64.4326231,35.4527983 64.4466231,35.4527983 64.4536231,35.4597983 C64.5246231,35.5117983 64.6096231,35.5567983 64.6876231,35.6097983 C64.6946231,35.6157983 64.7136231,35.6297983 64.7336231,35.6357983 C64.9356231,35.7857983 65.3596231,36.0917983 65.9266231,36.5487983 C68.2336231,38.3997983 72.7586231,42.6497983 73.4626231,47.9387983 C73.4626231,47.9387983 73.4626231,47.9447983 73.4696231,47.9587983 C73.4696231,47.9917983 73.4886231,48.0687983 73.5016231,48.1997983 C73.8026231,50.2467983 75.3146231,63.8657983 63.1816231,70.5497983 C63.1356231,70.7317983 63.1556231,70.9147983 63.2136231,71.0777983 C63.3766231,71.4947983 63.7686231,71.5927983 64.3736231,71.3637983 C64.4726231,71.3247983 64.5706231,71.2987983 64.6746231,71.2797983 C70.1246231,69.0167983 74.8976231,65.3197983 77.2256231,59.3417983 C79.5716231,53.3227983 77.1466231,40.5247983 76.1106231,35.0627983 C75.7006231,32.8917983 75.5566231,32.1167983 75.5566231,31.5227983 C75.5566231,31.1577983 75.5956231,30.6157983 75.6546231,29.8017983 C76.5146231,18.3267983 75.0546231,16.0387983 74.3896231,15.5817983 C73.0526231,14.6757983 68.6656231,15.3207983 61.3566231,17.5117983 C59.0286231,18.2097983 58.3246231,18.4247983 57.4766231,18.2807983 L57.1056231,18.2217983 L56.7666231,18.0527983 C52.1506231,15.8167983 45.1096231,15.7117983 44.7186231,15.7057983 L44.7046231,15.7057983 C44.3136231,15.7117983 37.2796231,15.8167983 32.6566231,18.0527983 L32.3176231,18.2217983 L31.9456231,18.2807983 C31.0986231,18.4177983 30.3936231,18.2097983 28.0666231,17.5117983 C20.7586231,15.3207983 16.3706231,14.6687983 15.0336231,15.5817983 Z M31.0309793,39.4663527 L29.2627852,41.2340129 L27.4954454,39.4663527 C26.9096589,38.8805663 25.9599114,38.8805663 25.374125,39.4663527 C24.7883386,40.0521391 24.7883386,41.0018866 25.374125,41.587673 L27.1417852,43.3550129 L25.374125,45.1232069 C24.7883386,45.7089934 24.7883386,46.6587408 25.374125,47.2445273 C25.9599114,47.8303137 26.9096589,47.8303137 27.4954454,47.2445273 L29.2627852,45.4760129 L31.0309793,47.2445273 C31.6167657,47.8303137 32.5665132,47.8303137 33.1522996,47.2445273 C33.738086,46.6587408 33.738086,45.7089934 33.1522996,45.1232069 L31.3837852,43.3550129 L33.1522996,41.587673 C33.738086,41.0018866 33.738086,40.0521391 33.1522996,39.4663527 C32.5665132,38.8805663 31.6167657,38.8805663 31.0309793,39.4663527 Z M61.6878335,39.4663527 L59.9196394,41.2340129 L58.1522996,39.4663527 C57.5665132,38.8805663 56.6167657,38.8805663 56.0309793,39.4663527 C55.4451928,40.0521391 55.4451928,41.0018866 56.0309793,41.587673 L57.7986394,43.3550129 L56.0309793,45.1232069 C55.4451928,45.7089934 55.4451928,46.6587408 56.0309793,47.2445273 C56.6167657,47.8303137 57.5665132,47.8303137 58.1522996,47.2445273 L59.9196394,45.4760129 L61.6878335,47.2445273 C62.2736199,47.8303137 63.2233674,47.8303137 63.8091538,47.2445273 C64.3949403,46.6587408 64.3949403,45.7089934 63.8091538,45.1232069 L62.0406394,43.3550129 L63.8091538,41.587673 C64.3949403,41.0018866 64.3949403,40.0521391 63.8091538,39.4663527 C63.2233674,38.8805663 62.2736199,38.8805663 61.6878335,39.4663527 Z M27.5306231,20.8137983 C28.8776231,21.3217983 29.5586231,22.8267983 29.0496231,24.1737983 C28.5416231,25.5217983 22.1008056,30.1286432 21.3456231,30.7177983 C20.5904406,31.3069535 20.1666231,31.4867983 19.4966231,31.4867983 C18.8316231,31.4867983 18.1666231,31.2337983 17.6576231,30.7277983 C16.5946231,29.6707983 16.4926231,26.1797983 16.5936231,23.4367983 C16.6566231,21.7487983 16.9016231,20.4497983 17.8956231,19.5977983 C18.7686231,18.8487983 19.8546231,17.9167983 27.5306231,20.8137983 Z M61.9686231,20.8137983 C69.6436231,17.9167983 70.7316231,18.8487983 71.6036231,19.5977983 C72.5976231,20.4497983 72.8436231,21.7487983 72.9066231,23.4367983 C73.0076231,26.1797983 72.9056231,29.6707983 71.8426231,30.7277983 C71.3336231,31.2337983 70.6686231,31.4867983 70.0036231,31.4867983 C69.3336231,31.4867983 68.8819498,31.244586 68.1516231,30.7177983 C67.9300352,30.5579661 66.777378,29.6947278 64.6936516,28.1280835 C62.0485306,25.9815643 60.6335211,24.6634692 60.4486231,24.1737983 C59.9406231,22.8267983 60.6206231,21.3217983 61.9686231,20.8137983 Z" id="ded" fill="#000000" fill-rule="nonzero"></path>
    </g>
</svg>