<?xml version="1.0" encoding="UTF-8"?>
<svg width="90px" height="90px" viewBox="0 0 90 90" version="1.1" xmlns="http://www.w3.org/2000/svg" xmlns:xlink="http://www.w3.org/1999/xlink">
    <title>nuki-flustered</title>
    <g id="nuki-flustered" stroke="none" stroke-width="1" fill="none" fill-rule="evenodd">
        <path d="M28.8791081,12.0558221 L29.657936,12.2856626 C29.9175768,12.3629792 30.1771865,12.4409222 30.436577,12.5192606 C30.7190338,12.6043776 31.0141713,12.692749 31.2930228,12.7753626 L31.8204284,12.9302421 L32.0517525,12.996917 C37.5550644,10.6271775 44.6595781,10.4959865 45.4348318,10.4897566 L45.5662003,10.4897532 C46.3456102,10.4959198 53.4454882,10.6262107 58.9488001,12.996917 C59.3824309,12.8727464 59.999062,12.6884932 60.562981,12.5192606 C67.3071342,10.4824614 74.1994778,8.71302965 77.9340738,11.2725472 C81.6911675,13.8438396 82.0208683,20.7105218 81.5891473,28.1125383 L81.5371637,28.9525873 C81.5096887,29.3735532 81.4800966,29.7957797 81.4488706,30.2185849 C81.4100825,30.7282854 81.3712945,31.2960657 81.3653271,31.5113616 C81.3899923,31.7933491 81.5413255,32.6143174 81.7037342,33.4764302 L81.7853263,33.9086105 L81.8258112,34.1229507 C83.0312254,40.5347626 85.5484724,53.8861114 82.6751707,61.3013022 C76.3716103,77.5706613 56.6792001,80 45.5002763,80 C34.3213525,80 14.6279477,77.5706613 8.32438731,61.3023036 C5.4520802,53.8871128 7.96833262,40.5347626 9.17374682,34.1239521 C9.37464919,33.0594892 9.60240484,31.8658488 9.63423096,31.512363 C9.62826356,31.2960657 9.58947548,30.7282854 9.5506874,30.2195863 C8.9479803,22.0393441 8.9539477,14.0874157 13.0654843,11.266539 C16.5128036,8.90945344 22.6507482,10.2358207 28.8791081,12.0558221 Z M15.984536,15.58948 C15.3231495,16.0471089 13.8770503,18.3382577 14.7264098,29.8290496 C14.7850892,30.6441698 14.8238773,31.1869157 14.8238773,31.552418 C14.8238773,32.1472355 14.6876217,32.9233021 14.2728876,35.0972898 C13.2415225,40.567808 10.8296995,53.3834206 13.1639463,59.4036943 C15.5499106,65.5801827 20.523736,69.3263311 26.151986,71.5724179 C26.287247,71.6054633 26.6383288,71.4352294 26.7417637,71.1618537 C26.8322692,70.9315371 26.8780193,70.5860623 26.7029756,70.3978036 C18.1071093,65.3626638 16.6867188,56.7379356 16.645963,51.7873841 L16.6456734,51.3779363 C16.6555216,49.9365798 16.7779486,48.8542173 16.8497611,48.3353744 L16.8739995,48.1676227 C16.8810756,48.1207768 16.8870421,48.0831354 16.8915803,48.0550978 C16.8915803,48.0360717 16.8985423,48.0230538 16.8985423,48.0100359 C16.9045097,47.9960166 16.9045097,47.9900084 16.9045097,47.9900084 C17.6176136,42.6556773 22.1826724,38.37179 24.446305,36.5442784 C24.4652017,36.5312605 24.4781311,36.5182426 24.4910605,36.5052247 C24.5557073,36.4531532 24.6203541,36.4070899 24.6790335,36.3550183 C24.9187239,36.1657582 25.1325556,36.0095435 25.2946699,35.8853729 C25.4179961,35.795249 25.521431,35.7221485 25.5930398,35.670077 C25.6119365,35.6640687 25.6248659,35.6500494 25.6377953,35.6440412 C25.7153714,35.5909683 25.7929476,35.5459063 25.8715183,35.4938348 C27.2589381,34.6646953 28.8681462,34.1880402 30.5728326,34.1880402 C35.869892,34.1880402 40.1763636,38.7703377 40.1763636,44.4110898 C40.1763636,46.937562 39.7606349,48.7931121 37.34185,50.4694158 C37.3111605,50.4947364 37.0853737,50.6758424 36.8311678,50.8781788 L36.5736621,51.0826084 C36.31903,51.2841478 36.0915382,51.4620658 36.057865,51.4818072 C35.9743215,51.5278705 35.8897834,51.5739338 35.7992778,51.6119861 C35.7604898,51.6260054 35.4104025,51.7902311 34.9499183,52.1086687 L34.9439509,52.1166797 C33.9185532,52.8276568 32.3431604,54.289666 32.3431604,56.5878244 C32.3431604,57.5731786 32.5122366,58.3963098 32.7777858,59.0822525 C33.8280477,60.9418081 35.124962,62.0393165 36.7331755,62.4438724 C39.4831509,63.1418317 42.4986756,61.7118664 43.6334756,61.0920146 C42.2380992,60.1657416 41.18187,58.455391 40.8705708,57.6903396 C39.9694938,55.5103436 41.0844025,54.1464693 41.4474191,53.7809669 C42.5812246,52.6373953 44.2421501,52.3960637 45.4286675,52.3960637 C46.2521683,52.3960637 48.3129094,52.5332522 49.5521389,53.7809669 C50.0185904,54.2446041 50.9853087,55.5503987 50.1160579,57.6653052 C49.8753729,58.253113 48.8072088,60.1527237 47.3083976,61.1320696 C47.321327,61.1390793 47.3402237,61.1581054 47.3541476,61.1721247 C47.9757515,61.6537866 50.5516779,63.515345 53.2479468,63.0837518 C55.0839159,62.7893472 56.7707002,61.4264742 58.2416635,59.0361892 C58.5012453,58.3582576 58.6633596,57.5541525 58.6633596,56.5878244 C58.6633596,54.2846592 57.0422167,52.801621 56.0247755,52.0966522 C55.558324,51.7772132 55.2151987,51.6209985 55.2082367,51.6129875 C55.1157421,51.5749352 55.0331931,51.5288719 54.9476604,51.4828086 C54.8710788,51.4317384 54.7915135,51.3796668 54.7159264,51.3275952 C52.2971415,49.6492887 50.831151,46.9385634 50.831151,44.4130926 C50.831151,38.7733418 55.1366279,34.1900429 60.4346819,34.1900429 C62.1214662,34.1900429 63.6958644,34.6536801 65.0842788,35.4698017 C65.0902462,35.4698017 65.0972082,35.47581 65.1031756,35.47581 C65.1151104,35.4878265 65.1290343,35.4878265 65.1359962,35.4948361 C65.2066104,35.5469077 65.2911486,35.5919696 65.3687247,35.6450426 C65.3756867,35.6510508 65.3945834,35.6650701 65.4144748,35.6710783 C65.6153771,35.8212848 66.0370732,36.1277059 66.6009922,36.5853348 C68.8954564,38.4388822 73.3958683,42.694731 74.0960429,47.9910097 C74.0960429,47.9910097 74.0960429,47.997018 74.1030049,48.0110373 C74.1030049,48.0440827 74.1219016,48.1211887 74.134831,48.2523689 C74.4341954,50.302186 75.9379794,63.9399285 63.8709081,70.633127 C63.825158,70.8153775 63.8450494,70.9986293 63.9027342,71.1618537 C64.0648485,71.5794275 64.4547184,71.6775624 65.0564309,71.4482472 C65.154893,71.4091936 65.2523605,71.3831578 65.3557954,71.3641316 C70.776181,69.0980173 75.5232454,65.3959295 77.8385954,59.4097026 C80.1718476,53.3824192 77.7600247,40.5668066 76.7296541,35.0972898 C76.321882,32.9233021 76.1786645,32.1472355 76.1786645,31.552418 C76.1786645,31.1869157 76.2174525,30.6441698 76.2761319,29.8290496 C76.9204042,21.1736479 76.2555059,17.7379459 75.6054846,16.3738272 L75.5383483,16.2399721 C75.348587,15.880922 75.1640261,15.690515 75.0180057,15.58948 C73.6882708,14.6822332 69.325109,15.3281208 62.0558248,17.5221361 C59.7404748,18.2210967 59.0403002,18.4363926 58.1969081,18.2921944 L57.827924,18.2331132 L57.4907661,18.0638806 C52.8998486,15.8248034 45.8971082,15.7196589 45.5082328,15.7136507 L45.4943089,15.7136507 C45.1054335,15.7196589 38.1096551,15.8248034 33.5117756,18.0638806 L33.1746177,18.2331132 L32.8046391,18.2921944 C31.9622415,18.4293829 31.2610724,18.2210967 28.9467169,17.5221361 C21.6784273,15.3281208 17.3142709,14.6752235 15.984536,15.58948 Z M62.5931651,39.4709374 L58.5272751,42.3373981 C57.953289,42.7420595 57.6551638,43.3928219 57.675817,44.0464665 C57.6549495,44.7002919 57.9530826,45.3513767 58.5272751,45.7561835 L62.5931651,48.6226442 C63.4893961,49.2544889 64.7281463,49.0401614 65.359991,48.1439304 L65.3672936,48.1335012 L65.4556245,47.9949118 C65.9748869,47.1025618 65.7335053,45.9467719 64.875004,45.3415268 L63.0379057,44.0461928 L64.875004,42.7520549 C65.7786896,42.1149547 65.998586,40.8678327 65.3672936,39.9600805 C65.3648706,39.9565963 65.3624363,39.9531199 65.359991,39.9496513 C64.7281463,39.0534202 63.4893961,38.8390927 62.5931651,39.4709374 Z M26.2161705,39.9496513 C26.2137252,39.9531199 26.2112909,39.9565963 26.2088679,39.9600805 C25.5775755,40.8678327 25.7974719,42.1149547 26.7011575,42.7520549 L28.5382558,44.0461928 L26.7011575,45.3415268 C25.8426562,45.9467719 25.6012746,47.1025618 26.120537,47.9949118 L26.2088679,48.1335012 L26.2161705,48.1439304 C26.8480152,49.0401614 28.0867654,49.2544889 28.9829964,48.6226442 L33.0488864,45.7561835 C33.6230789,45.3513767 33.921212,44.7002919 33.9003445,44.0464665 C33.9209977,43.3928219 33.6228725,42.7420595 33.0488864,42.3373981 L28.9829964,39.4709374 C28.0867654,38.8390927 26.8480152,39.0534202 26.2161705,39.9496513 Z M28.4136294,20.8286803 C29.7533101,21.3373794 30.4306096,22.8444506 29.9243755,24.1933043 C29.4191358,25.5431595 23.0133166,30.1563443 22.2622377,30.7463102 C21.5111587,31.3362761 21.0896441,31.5163685 20.4232848,31.5163685 C19.7618983,31.5163685 19.1005118,31.2630203 18.5942776,30.756324 C17.5370538,29.6978693 17.435608,26.202065 17.5360592,23.4552901 C17.5987169,21.764967 17.8423856,20.4641794 18.8309844,19.6110068 C19.6992406,18.8609761 20.7793395,17.9276934 28.4136294,20.8286803 Z M62.6644993,20.8286803 C70.2977947,17.9276934 71.3798827,18.8609761 72.2471444,19.6110068 C73.2357432,20.4641794 73.4804064,21.764967 73.5430641,23.4552901 C73.6435153,26.202065 73.5420695,29.6978693 72.4848457,30.756324 C71.9786115,31.2630203 71.317225,31.5163685 70.6558385,31.5163685 C69.9894792,31.5163685 69.5402602,31.2738228 68.813902,30.7463102 C68.5935181,30.586258 67.4471243,29.7218317 65.3747205,28.1530314 C62.7439726,26.0035581 61.336652,24.6836491 61.1527587,24.1933043 C60.6475191,22.8444506 61.3238241,21.3373794 62.6644993,20.8286803 Z" id="flustered" fill="#000000" fill-rule="nonzero"></path>
    </g>
</svg>