<?xml version="1.0" encoding="UTF-8"?>
<svg width="78px" height="70px" viewBox="0 0 78 70" version="1.1" xmlns="http://www.w3.org/2000/svg" xmlns:xlink="http://www.w3.org/1999/xlink">
    <title>wink-right</title>
    <g id="Page-1" stroke="none" stroke-width="1" fill="none" fill-rule="evenodd">
        <g id="Artboard" transform="translate(-392, -513)" fill="#000000" fill-rule="nonzero">
            <path d="M413.216509,514.828607 L413.998645,515.052997 C414.520511,515.204455 415.043008,515.359337 415.564623,515.515798 C416.132623,515.685798 416.751623,515.868798 417.188623,515.992798 C422.820813,513.584057 430.120964,513.491339 430.680446,513.488858 L430.74105,513.488857 C431.305111,513.491305 438.600433,513.583074 444.232623,515.992798 C444.668623,515.868798 445.288623,515.684798 445.855623,515.515798 C446.377239,515.359337 446.899736,515.204455 447.421601,515.053 L448.203737,514.828616 C454.193583,513.131584 459.999892,512.009721 463.321623,514.270798 C467.455623,517.080798 467.462623,525.027798 466.855623,533.190798 L466.829985,533.534225 C466.800919,533.934416 466.77629,534.314576 466.771623,534.481798 C466.802623,534.833798 467.032623,536.026798 467.234623,537.089798 C468.446623,543.492798 470.977623,556.825798 468.088623,564.230798 C461.814003,580.315328 442.345277,582.853896 431.050369,582.903059 L430.370877,582.903059 C419.075949,582.853896 399.606243,580.315338 393.331623,564.231798 C390.443623,556.826798 392.973623,543.492798 394.185623,537.090798 C394.387623,536.027798 394.616623,534.835798 394.648623,534.482798 C394.642623,534.266798 394.603623,533.699798 394.564623,533.191798 C393.958623,525.022798 393.964623,517.081798 398.098623,514.264798 C401.420354,512.009029 407.226663,513.131504 413.216509,514.828607 Z M401.033623,518.581798 C400.368623,519.038798 398.914623,521.326798 399.768623,532.801798 C399.827623,533.615798 399.866623,534.157798 399.866623,534.522798 C399.866623,535.116798 399.729623,535.891798 399.312623,538.062798 C398.275623,543.525798 395.850623,556.323798 398.197623,562.335798 C400.596623,568.503798 405.597623,572.244798 411.256623,574.487798 C411.392623,574.520798 411.745623,574.350798 411.849623,574.077798 C411.940623,573.847798 411.986623,573.502798 411.810623,573.314798 C399.637623,566.232798 401.776623,552.039798 401.945623,551.002798 C401.945623,550.983798 401.952623,550.970798 401.952623,550.957798 C401.958623,550.943798 401.958623,550.937798 401.958623,550.937798 C402.675623,545.610798 407.265623,541.332798 409.541623,539.507798 C409.560623,539.494798 409.573623,539.481798 409.586623,539.468798 C409.651623,539.416798 409.716623,539.370798 409.775623,539.318798 C410.016623,539.129798 410.231623,538.973798 410.394623,538.849798 C410.518623,538.759798 410.622623,538.686798 410.694623,538.634798 C410.713623,538.628798 410.726623,538.614798 410.739623,538.608798 C410.817623,538.555798 410.895623,538.510798 410.974623,538.458798 C412.369623,537.630798 413.987623,537.154798 415.701623,537.154798 C421.027623,537.154798 425.357623,541.730798 425.357623,547.363798 C425.357623,549.886798 424.939623,551.739798 422.507623,553.413798 C422.435623,553.472798 421.295623,554.378798 421.216623,554.424798 C421.132623,554.470798 421.047623,554.516798 420.956623,554.554798 C420.917623,554.568798 420.565623,554.732798 420.102623,555.050798 L420.096623,555.058798 C419.065623,555.768798 417.481623,557.228798 417.481623,559.523798 C417.481623,560.507798 417.651623,561.329798 417.918623,562.014798 C418.974623,563.871798 420.278623,564.967798 421.895623,565.371798 C424.660623,566.068798 427.692623,564.640798 428.833623,564.021798 C427.430623,563.096798 426.368623,561.388798 426.055623,560.624798 C425.149623,558.447798 426.270623,557.085798 426.635623,556.720798 C427.775623,555.578798 429.445623,555.337798 430.638623,555.337798 C431.466623,555.337798 433.538623,555.474798 434.784623,556.720798 C435.253623,557.183798 436.225623,558.487798 435.351623,560.599798 C435.109623,561.186798 434.035623,563.083798 432.528623,564.061798 C432.541623,564.068798 432.560623,564.087798 432.574623,564.101798 C433.199623,564.582798 435.789623,566.441798 438.500623,566.010798 C440.346623,565.716798 442.042623,564.355798 443.521623,561.968798 C443.782623,561.291798 443.945623,560.488798 443.945623,559.523798 C443.945623,557.223798 442.315623,555.742798 441.292623,555.038798 C440.823623,554.719798 440.478623,554.563798 440.471623,554.555798 C440.378623,554.517798 440.295623,554.471798 440.209623,554.425798 C440.132623,554.374798 440.052623,554.322798 439.976623,554.270798 C437.544623,552.594798 436.070623,549.887798 436.070623,547.365798 C436.070623,541.733798 440.399623,537.156798 445.726623,537.156798 C447.422623,537.156798 449.005623,537.619798 450.401623,538.434798 C450.407623,538.434798 450.414623,538.440798 450.420623,538.440798 C450.432623,538.452798 450.446623,538.452798 450.453623,538.459798 C450.524623,538.511798 450.609623,538.556798 450.687623,538.609798 C450.694623,538.615798 450.713623,538.629798 450.733623,538.635798 C450.935623,538.785798 451.359623,539.091798 451.926623,539.548798 C454.233623,541.399798 458.758623,545.649798 459.462623,550.938798 C459.462623,550.938798 459.462623,550.944798 459.469623,550.958798 C459.469623,550.991798 459.488623,551.068798 459.501623,551.199798 C459.802623,553.246798 461.314623,566.865798 449.181623,573.549798 C449.135623,573.731798 449.155623,573.914798 449.213623,574.077798 C449.376623,574.494798 449.768623,574.592798 450.373623,574.363798 C450.472623,574.324798 450.570623,574.298798 450.674623,574.279798 C456.124623,572.016798 460.897623,568.319798 463.225623,562.341798 C465.571623,556.322798 463.146623,543.524798 462.110623,538.062798 C461.700623,535.891798 461.556623,535.116798 461.556623,534.522798 C461.556623,534.157798 461.595623,533.615798 461.654623,532.801798 C462.514623,521.326798 461.054623,519.038798 460.389623,518.581798 C459.052623,517.675798 454.665623,518.320798 447.356623,520.511798 C445.028623,521.209798 444.324623,521.424798 443.476623,521.280798 L443.105623,521.221798 L442.766623,521.052798 C438.150623,518.816798 431.109623,518.711798 430.718623,518.705798 L430.704623,518.705798 C430.313623,518.711798 423.279623,518.816798 418.656623,521.052798 L418.317623,521.221798 L417.945623,521.280798 C417.098623,521.417798 416.393623,521.209798 414.066623,520.511798 C406.758623,518.320798 402.370623,517.668798 401.033623,518.581798 Z M415.210623,542 C413.829911,542 412.710623,543.119288 412.710623,544.5 L412.710623,549.5 C412.710623,550.880712 413.829911,552 415.210623,552 C416.591335,552 417.710623,550.880712 417.710623,549.5 L417.710623,544.5 C417.710623,543.119288 416.591335,542 415.210623,542 Z M446.900727,542.427755 L442.804967,545.295637 C442.230354,545.697986 441.931971,546.347778 441.952955,547.000796 C441.932277,547.652886 442.230647,548.30222 442.804967,548.704363 L446.900727,551.572245 C447.805538,552.2058 449.052629,551.985904 449.686184,551.081094 L449.774838,550.942925 C450.296037,550.053108 450.054603,548.897514 449.195033,548.295637 L447.344948,546.999887 L449.195033,545.704363 C450.099843,545.070808 450.319739,543.823716 449.686184,542.918906 C449.052629,542.014096 447.805538,541.7942 446.900727,542.427755 Z M413.530623,523.813798 C414.877623,524.321798 415.558623,525.826798 415.049623,527.173798 C414.541623,528.521798 408.100806,533.128643 407.345623,533.717798 C406.590441,534.306953 406.166623,534.486798 405.496623,534.486798 C404.831623,534.486798 404.166623,534.233798 403.657623,533.727798 C402.594623,532.670798 402.492623,529.179798 402.593623,526.436798 C402.656623,524.748798 402.901623,523.449798 403.895623,522.597798 C404.768623,521.848798 405.854623,520.916798 413.530623,523.813798 Z M447.968623,523.813798 C455.643623,520.916798 456.731623,521.848798 457.603623,522.597798 C458.597623,523.449798 458.843623,524.748798 458.906623,526.436798 C459.007623,529.179798 458.905623,532.670798 457.842623,533.727798 C457.333623,534.233798 456.668623,534.486798 456.003623,534.486798 C455.333623,534.486798 454.88195,534.244586 454.151623,533.717798 C453.930035,533.557966 452.777378,532.694728 450.693652,531.128084 C448.048531,528.981564 446.633521,527.663469 446.448623,527.173798 C445.940623,525.826798 446.620623,524.321798 447.968623,523.813798 Z" id="wink-right"></path>
        </g>
    </g>
</svg>