<svg id="vector" xmlns="http://www.w3.org/2000/svg" width="32.0d" height="32.0d" viewBox="0 0 32.0 32.0"><path fill="#ff252525" d="M17.0431,8.8767C17.3585,8.547 17.864,8.5105 18.221,8.7723L18.3144,8.8512L24.3342,14.629C24.7113,14.9899 24.9185,15.4768 24.9185,16.0004C24.9185,16.4639 24.7549,16.9001 24.4544,17.2448L24.3354,17.3696L18.3147,23.1493C18.1462,23.3119 17.9224,23.4004 17.6925,23.4004C17.4483,23.4004 17.2131,23.3023 17.0433,23.1233C16.7278,22.7946 16.7112,22.2883 16.9863,21.9415L17.0686,21.8512L22.225,16.9L7.9815,16.9004C7.5222,16.9004 7.144,16.5571 7.0885,16.1133L7.0815,16.0004C7.0815,15.5415 7.4244,15.1629 7.8685,15.1074L7.9815,15.1004L22.225,15.1L17.0684,10.1494C16.7405,9.8336 16.7035,9.3284 16.9645,8.9704L17.0431,8.8767Z" stroke="#00000000" stroke-width="1.0" fill-rule="nonzero" id="path_0"/></svg>