<svg id="vector" xmlns="http://www.w3.org/2000/svg" width="32.0d" height="32.0d" viewBox="0 0 32.0 32.0"><path fill="#ff252525" d="M16,7.081C16.4633,7.081 16.9005,7.2455 17.2461,7.5461L17.3712,7.6651L23.1492,13.6851C23.4933,14.0436 23.4818,14.6123 23.1234,14.9586C22.9528,15.1211 22.7301,15.209 22.5,15.209C22.2976,15.209 22.1011,15.1408 21.9417,15.0145L21.8508,14.9319L16.899,9.773L16.9,24.019C16.9,24.4783 16.5567,24.8565 16.1129,24.912L16,24.919C15.5411,24.919 15.1625,24.5761 15.107,24.132L15.1,24.019L15.099,9.774L10.1492,14.9319C9.8338,15.2605 9.3288,15.2975 8.9698,15.0365L8.8758,14.9579C8.548,14.6411 8.511,14.1368 8.7722,13.7789L8.8508,13.6851L14.6289,7.665C14.9906,7.2892 15.4788,7.081 16,7.081Z" stroke="#00000000" stroke-width="1.0" fill-rule="nonzero" id="path_0"/></svg>