<svg id="vector" xmlns="http://www.w3.org/2000/svg" width="32.0d" height="32.0d" viewBox="0 0 32.0 32.0"><path fill="#ff252525" d="M15.9996,7.081C16.4588,7.081 16.8371,7.4243 16.8926,7.8681L16.8996,7.981L16.899,22.226L21.8505,17.0689C22.1669,16.7405 22.672,16.7035 23.0298,16.9643L23.1234,17.0428C23.4525,17.3587 23.4896,17.8641 23.2276,18.2221L23.1488,18.3159L17.3709,24.3347C17.0103,24.7116 16.5225,24.919 15.9996,24.919C15.5355,24.919 15.0985,24.755 14.7541,24.4541L14.6294,24.3349L8.8504,18.3159C8.506,17.9571 8.5179,17.3872 8.8769,17.0426C9.206,16.7278 9.7114,16.7112 10.0583,16.9867L10.1488,17.0691L15.099,22.226L15.0996,7.981C15.0996,7.5224 15.4431,7.1436 15.8867,7.088L15.9996,7.081Z" stroke="#00000000" stroke-width="1.0" fill-rule="nonzero" id="path_0"/></svg>