<svg id="vector" xmlns="http://www.w3.org/2000/svg" width="32.0d" height="32.0d" viewBox="0 0 32.0 32.0"><path fill="#ff252525" d="M24.1315,15.107C24.5756,15.1625 24.9185,15.5411 24.9185,16C24.9185,16.4589 24.5756,16.8375 24.1315,16.893L24.0185,16.9L9.775,16.9L14.9314,21.8508C15.2595,22.1657 15.2965,22.6718 15.0356,23.0298L14.957,23.1236C14.7865,23.3023 14.5513,23.4 14.3075,23.4C14.1151,23.4 13.9277,23.3389 13.7738,23.2243L13.6856,23.1492L7.6658,17.3704C7.289,17.0099 7.0815,16.5221 7.0815,16C7.0815,15.5355 7.2452,15.0984 7.5456,14.7536L7.6646,14.6288L13.6853,8.8511C14.0419,8.5066 14.6131,8.5181 14.9567,8.8761C15.2722,9.2048 15.2888,9.711 15.0136,10.0586L14.9314,10.1492L9.774,15.1L24.0185,15.1L24.1315,15.107Z" stroke="#00000000" stroke-width="1.0" fill-rule="nonzero" id="path_0"/></svg>