<svg id="vector" xmlns="http://www.w3.org/2000/svg" width="20.0d" height="20.0d" viewBox="0 0 20.0 20.0"><path fill="#ffa1a1a1" d="M12.9513,7.6663L9.8081,10.8351C9.7758,10.8673 9.7383,10.8741 9.7128,10.8741C9.6866,10.8741 9.6506,10.8673 9.6183,10.8351L6.4616,7.6656C6.2418,7.4451 5.8863,7.4451 5.6658,7.6641C5.4453,7.8831 5.4446,8.2393 5.6643,8.4598L8.8203,11.6286C9.0588,11.8678 9.3746,11.9991 9.7128,11.9991L9.7136,11.9991C10.0511,11.9983 10.3683,11.8671 10.6061,11.6263L13.7493,8.4591C13.9683,8.2386 13.9668,7.8816 13.7471,7.6633C13.5266,7.4443 13.1703,7.4458 12.9513,7.6663" fill-rule="nonzero" id="path_0"/></svg>