<svg width="45" height="34" viewBox="0 0 45 34" fill="none" xmlns="http://www.w3.org/2000/svg">
<path d="M25.75 10.8311C26.164 10.8311 26.5 10.4951 26.5 10.0811C26.5 9.66705 26.164 9.33105 25.75 9.33105H21.75C21.336 9.33105 21 9.66705 21 10.0811C21 10.4951 21.336 10.8311 21.75 10.8311H22.896L20.567 23.1691H19.25C18.836 23.1691 18.5 23.5051 18.5 23.9191C18.5 24.3331 18.836 24.6691 19.25 24.6691H23.25C23.664 24.6691 24 24.3331 24 23.9191C24 23.5051 23.664 23.1691 23.25 23.1691H22.094L24.422 10.8311H25.75Z" fill="#252525"/>
</svg>
