<svg width="54" height="54" viewBox="0 0 54 54" fill="none" xmlns="http://www.w3.org/2000/svg">
<path d="M53.387 48.7663L40.55 35.9303C43.284 32.2463 44.905 27.6883 44.905 22.7593C44.905 10.5483 34.968 0.613281 22.756 0.613281C10.546 0.613281 0.612 10.5473 0.612 22.7593C0.612 34.9713 10.546 44.9073 22.756 44.9073C27.685 44.9073 32.244 43.2873 35.928 40.5523L48.765 53.3883L53.387 48.7663ZM7.147 22.7583C7.147 14.1513 14.149 7.14728 22.756 7.14728C31.366 7.14728 38.37 14.1503 38.37 22.7583C38.37 31.3673 31.366 38.3713 22.756 38.3713C14.149 38.3713 7.147 31.3673 7.147 22.7583Z" fill="black"/>
</svg>
