<svg id="vector" xmlns="http://www.w3.org/2000/svg" width="4.0d" height="16.0d" viewBox="0 0 4.0 16.0"><defs><clipPath id="clip_path_0"><path d="M1.6,12.75C2.4684,12.75 3.1,13.3816 3.1,14.25C3.1,15.1184 2.4684,15.75 1.6,15.75C0.8105,15.75 0.1,15.1184 0.1,14.25C0.1,13.3816 0.7316,12.75 1.6,12.75ZM1.6,6.5C2.4684,6.5 3.1,7.1316 3.1,8C3.1,8.8684 2.4684,9.5 1.6,9.5C0.8105,9.5 0.1,8.8684 0.1,8C0.1,7.1316 0.7316,6.5 1.6,6.5ZM1.6,0.25C2.3895,0.25 3.1,0.8816 3.1,1.75C3.1,2.6184 2.4684,3.25 1.6,3.25C0.8105,3.25 0.1,2.6184 0.1,1.75C0.1,0.8816 0.7316,0.25 1.6,0.25Z"/></clipPath></defs><g id="g_0"><path fill="#ff404040" d="M-10,-4h24v24h-24z" stroke="#00000000" stroke-width="1.0" fill-rule="evenodd" clip-path="url(#clip_path_0)"/></g></svg>