<svg width="24" height="24" viewBox="0 0 24 24" fill="none" xmlns="http://www.w3.org/2000/svg">
<path d="M14.2369 4.30535C15.3107 3.23145 17.0513 3.23145 18.1262 4.30495L20.2472 6.42695C21.3214 7.49985 21.3214 9.24075 20.2475 10.316L11.7405 18.823C11.7 18.8635 11.6578 18.9012 11.614 18.9361C11.5959 18.9599 11.5749 18.9838 11.552 19.0066C11.2277 19.331 10.5318 19.8287 10.0925 19.9791L9.96901 20.0133L4.80271 21.0259C4.04691 21.176 3.43291 20.6064 3.50641 19.8669L3.52371 19.7488L4.53811 14.5823C4.62101 14.1642 5.18781 13.3555 5.54341 13L5.62331 12.9311C5.65641 12.8901 5.69191 12.8505 5.72991 12.8124L14.2369 4.30535ZM5.95341 15.158L5.11341 19.436L9.39241 18.5969L5.95341 15.158ZM17.0662 5.36635C16.5771 4.87785 15.7857 4.87785 15.2975 5.36595L6.79141 13.8721L10.6795 17.7624L19.1865 9.25565C19.675 8.76655 19.675 7.97545 19.1867 7.48785L17.0662 5.36635Z" fill="black"/>
</svg>
