<svg id="vector" xmlns="http://www.w3.org/2000/svg" width="18.0d" height="18.0d" viewBox="0 0 18.0 18.0"><path fill="#ff252525" d="M10.4995,1C11.1129,1 11.6108,1.4952 11.6108,2.1034L11.6108,2.1034L11.6108,3.869L15.3332,3.869C15.7013,3.869 16,4.1656 16,4.531C16,4.8974 15.7013,5.1931 15.3332,5.1931L15.3332,5.1931L14.1312,5.1931L13.3249,15.1383C13.2422,16.1649 12.33,17 11.2934,17L11.2934,17L5.7066,17C4.67,17 3.7587,16.1649 3.6751,15.1383L3.6751,15.1383L2.8697,5.1931L1.6668,5.1931C1.2987,5.1931 1,4.8974 1,4.531C1,4.1656 1.2987,3.869 1.6668,3.869L1.6668,3.869L5.3874,3.869L5.3874,2.1034C5.3874,1.4952 5.8862,1 6.4988,1L6.4988,1ZM6.8384,7.9862C6.4694,7.9862 6.1716,8.2828 6.1716,8.6482L6.1716,8.6482L6.1716,12.5765C6.1716,12.9428 6.4694,13.2386 6.8384,13.2386C7.2064,13.2386 7.5052,12.9428 7.5052,12.5765L7.5052,12.5765L7.5052,8.6482C7.5052,8.2828 7.2064,7.9862 6.8384,7.9862ZM10.1625,7.9862C9.7945,7.9862 9.4957,8.2828 9.4957,8.6482L9.4957,8.6482L9.4957,12.5765C9.4957,12.9428 9.7945,13.2386 10.1625,13.2386C10.5306,13.2386 10.8293,12.9428 10.8293,12.5765L10.8293,12.5765L10.8293,8.6482C10.8293,8.2828 10.5306,7.9862 10.1625,7.9862ZM10.2772,2.3241L6.721,2.3241L6.721,3.869L10.2772,3.869L10.2772,2.3241Z" stroke="#00000000" stroke-width="1.0" fill-rule="nonzero" id="path_0"/></svg>